ISO-10303-21;
HEADER;
/* Generated by software containing ST-Developer
 * from STEP Tools, Inc. (www.steptools.com) 
 */

FILE_DESCRIPTION(
/* description */ (''),
/* implementation_level */ '2;1');

FILE_NAME(
/* name */ 'body.step',
/* time_stamp */ '2026-09-13T11:25:50+08:00',
/* author */ (''),
/* organization */ (''),
/* preprocessor_version */ 'ST-DEVELOPER v20.2',
/* originating_system */ 'Autodesk Translation Framework v15.15.0.0',
/* authorisation */ '');

FILE_SCHEMA (('AUTOMOTIVE_DESIGN { 1 0 10303 214 3 1 1 }'));
ENDSEC;

DATA;
#10=MECHANICAL_DESIGN_GEOMETRIC_PRESENTATION_REPRESENTATION('',(#13),#641);
#11=SHAPE_REPRESENTATION_RELATIONSHIP('SRR','None',#648,#12);
#12=ADVANCED_BREP_SHAPE_REPRESENTATION('',(#14),#640);
#13=STYLED_ITEM('',(#658),#14);
#14=MANIFOLD_SOLID_BREP('Body1',#385);
#15=CIRCLE('',#409,1.4585);
#16=CIRCLE('',#410,1.4585);
#17=CIRCLE('',#413,1.4585);
#18=CIRCLE('',#414,1.4585);
#19=CIRCLE('',#417,1.4585);
#20=CIRCLE('',#418,1.4585);
#21=CIRCLE('',#421,1.4585);
#22=CIRCLE('',#422,1.4585);
#23=CYLINDRICAL_SURFACE('',#408,1.4585);
#24=CYLINDRICAL_SURFACE('',#412,1.4585);
#25=CYLINDRICAL_SURFACE('',#416,1.4585);
#26=CYLINDRICAL_SURFACE('',#420,1.4585);
#27=FACE_BOUND('',#62,.T.);
#28=FACE_BOUND('',#76,.T.);
#29=FACE_BOUND('',#81,.T.);
#30=FACE_BOUND('',#82,.T.);
#31=FACE_BOUND('',#83,.T.);
#32=FACE_BOUND('',#84,.T.);
#33=FACE_BOUND('',#85,.T.);
#34=FACE_OUTER_BOUND('',#57,.T.);
#35=FACE_OUTER_BOUND('',#58,.T.);
#36=FACE_OUTER_BOUND('',#59,.T.);
#37=FACE_OUTER_BOUND('',#60,.T.);
#38=FACE_OUTER_BOUND('',#61,.T.);
#39=FACE_OUTER_BOUND('',#63,.T.);
#40=FACE_OUTER_BOUND('',#64,.T.);
#41=FACE_OUTER_BOUND('',#65,.T.);
#42=FACE_OUTER_BOUND('',#66,.T.);
#43=FACE_OUTER_BOUND('',#67,.T.);
#44=FACE_OUTER_BOUND('',#68,.T.);
#45=FACE_OUTER_BOUND('',#69,.T.);
#46=FACE_OUTER_BOUND('',#70,.T.);
#47=FACE_OUTER_BOUND('',#71,.T.);
#48=FACE_OUTER_BOUND('',#72,.T.);
#49=FACE_OUTER_BOUND('',#73,.T.);
#50=FACE_OUTER_BOUND('',#74,.T.);
#51=FACE_OUTER_BOUND('',#75,.T.);
#52=FACE_OUTER_BOUND('',#77,.T.);
#53=FACE_OUTER_BOUND('',#78,.T.);
#54=FACE_OUTER_BOUND('',#79,.T.);
#55=FACE_OUTER_BOUND('',#80,.T.);
#56=FACE_OUTER_BOUND('',#86,.T.);
#57=EDGE_LOOP('',(#247,#248,#249,#250));
#58=EDGE_LOOP('',(#251,#252,#253,#254));
#59=EDGE_LOOP('',(#255,#256,#257,#258));
#60=EDGE_LOOP('',(#259,#260,#261,#262));
#61=EDGE_LOOP('',(#263,#264,#265,#266));
#62=EDGE_LOOP('',(#267,#268,#269,#270));
#63=EDGE_LOOP('',(#271,#272,#273,#274));
#64=EDGE_LOOP('',(#275,#276,#277,#278));
#65=EDGE_LOOP('',(#279,#280,#281,#282));
#66=EDGE_LOOP('',(#283,#284,#285,#286));
#67=EDGE_LOOP('',(#287,#288,#289,#290));
#68=EDGE_LOOP('',(#291));
#69=EDGE_LOOP('',(#292,#293,#294,#295));
#70=EDGE_LOOP('',(#296));
#71=EDGE_LOOP('',(#297,#298,#299,#300));
#72=EDGE_LOOP('',(#301));
#73=EDGE_LOOP('',(#302,#303,#304,#305));
#74=EDGE_LOOP('',(#306));
#75=EDGE_LOOP('',(#307,#308,#309,#310));
#76=EDGE_LOOP('',(#311,#312,#313,#314));
#77=EDGE_LOOP('',(#315,#316,#317,#318));
#78=EDGE_LOOP('',(#319,#320,#321,#322));
#79=EDGE_LOOP('',(#323,#324,#325,#326));
#80=EDGE_LOOP('',(#327,#328,#329,#330));
#81=EDGE_LOOP('',(#331,#332,#333,#334));
#82=EDGE_LOOP('',(#335));
#83=EDGE_LOOP('',(#336));
#84=EDGE_LOOP('',(#337));
#85=EDGE_LOOP('',(#338));
#86=EDGE_LOOP('',(#339,#340,#341,#342));
#87=LINE('',#538,#127);
#88=LINE('',#540,#128);
#89=LINE('',#542,#129);
#90=LINE('',#543,#130);
#91=LINE('',#546,#131);
#92=LINE('',#548,#132);
#93=LINE('',#549,#133);
#94=LINE('',#552,#134);
#95=LINE('',#554,#135);
#96=LINE('',#555,#136);
#97=LINE('',#557,#137);
#98=LINE('',#558,#138);
#99=LINE('',#562,#139);
#100=LINE('',#564,#140);
#101=LINE('',#566,#141);
#102=LINE('',#567,#142);
#103=LINE('',#570,#143);
#104=LINE('',#572,#144);
#105=LINE('',#573,#145);
#106=LINE('',#576,#146);
#107=LINE('',#578,#147);
#108=LINE('',#579,#148);
#109=LINE('',#581,#149);
#110=LINE('',#583,#150);
#111=LINE('',#588,#151);
#112=LINE('',#595,#152);
#113=LINE('',#602,#153);
#114=LINE('',#609,#154);
#115=LINE('',#615,#155);
#116=LINE('',#617,#156);
#117=LINE('',#619,#157);
#118=LINE('',#620,#158);
#119=LINE('',#624,#159);
#120=LINE('',#626,#160);
#121=LINE('',#628,#161);
#122=LINE('',#629,#162);
#123=LINE('',#631,#163);
#124=LINE('',#632,#164);
#125=LINE('',#634,#165);
#126=LINE('',#636,#166);
#127=VECTOR('',#434,1.);
#128=VECTOR('',#435,1.85085);
#129=VECTOR('',#436,1.);
#130=VECTOR('',#437,1.85085);
#131=VECTOR('',#440,1.);
#132=VECTOR('',#441,1.);
#133=VECTOR('',#442,1.85085);
#134=VECTOR('',#445,1.);
#135=VECTOR('',#446,1.);
#136=VECTOR('',#447,1.85085);
#137=VECTOR('',#450,1.);
#138=VECTOR('',#451,1.);
#139=VECTOR('',#454,1.);
#140=VECTOR('',#455,0.50085);
#141=VECTOR('',#456,4.96335);
#142=VECTOR('',#457,0.50085);
#143=VECTOR('',#460,1.);
#144=VECTOR('',#461,3.02035);
#145=VECTOR('',#462,0.50085);
#146=VECTOR('',#465,1.);
#147=VECTOR('',#466,4.96335);
#148=VECTOR('',#467,0.50085);
#149=VECTOR('',#470,3.02035);
#150=VECTOR('',#473,1.);
#151=VECTOR('',#478,1.4585);
#152=VECTOR('',#487,1.4585);
#153=VECTOR('',#496,1.4585);
#154=VECTOR('',#505,1.4585);
#155=VECTOR('',#512,0.65);
#156=VECTOR('',#513,5.96249999999998);
#157=VECTOR('',#514,0.65);
#158=VECTOR('',#515,5.96249999999998);
#159=VECTOR('',#518,0.65);
#160=VECTOR('',#519,5.96249999999998);
#161=VECTOR('',#520,0.65);
#162=VECTOR('',#521,5.96249999999998);
#163=VECTOR('',#524,4.01949999999999);
#164=VECTOR('',#525,4.01949999999999);
#165=VECTOR('',#528,4.01949999999999);
#166=VECTOR('',#531,4.01949999999999);
#167=VERTEX_POINT('',#536);
#168=VERTEX_POINT('',#537);
#169=VERTEX_POINT('',#539);
#170=VERTEX_POINT('',#541);
#171=VERTEX_POINT('',#545);
#172=VERTEX_POINT('',#547);
#173=VERTEX_POINT('',#551);
#174=VERTEX_POINT('',#553);
#175=VERTEX_POINT('',#560);
#176=VERTEX_POINT('',#561);
#177=VERTEX_POINT('',#563);
#178=VERTEX_POINT('',#565);
#179=VERTEX_POINT('',#569);
#180=VERTEX_POINT('',#571);
#181=VERTEX_POINT('',#575);
#182=VERTEX_POINT('',#577);
#183=VERTEX_POINT('',#585);
#184=VERTEX_POINT('',#587);
#185=VERTEX_POINT('',#592);
#186=VERTEX_POINT('',#594);
#187=VERTEX_POINT('',#599);
#188=VERTEX_POINT('',#601);
#189=VERTEX_POINT('',#606);
#190=VERTEX_POINT('',#608);
#191=VERTEX_POINT('',#613);
#192=VERTEX_POINT('',#614);
#193=VERTEX_POINT('',#616);
#194=VERTEX_POINT('',#618);
#195=VERTEX_POINT('',#622);
#196=VERTEX_POINT('',#623);
#197=VERTEX_POINT('',#625);
#198=VERTEX_POINT('',#627);
#199=EDGE_CURVE('',#167,#168,#87,.T.);
#200=EDGE_CURVE('',#169,#167,#88,.T.);
#201=EDGE_CURVE('',#170,#169,#89,.T.);
#202=EDGE_CURVE('',#170,#168,#90,.T.);
#203=EDGE_CURVE('',#168,#171,#91,.T.);
#204=EDGE_CURVE('',#172,#170,#92,.T.);
#205=EDGE_CURVE('',#172,#171,#93,.T.);
#206=EDGE_CURVE('',#171,#173,#94,.T.);
#207=EDGE_CURVE('',#174,#172,#95,.T.);
#208=EDGE_CURVE('',#174,#173,#96,.T.);
#209=EDGE_CURVE('',#173,#167,#97,.T.);
#210=EDGE_CURVE('',#169,#174,#98,.T.);
#211=EDGE_CURVE('',#175,#176,#99,.T.);
#212=EDGE_CURVE('',#177,#175,#100,.T.);
#213=EDGE_CURVE('',#178,#177,#101,.T.);
#214=EDGE_CURVE('',#176,#178,#102,.T.);
#215=EDGE_CURVE('',#176,#179,#103,.T.);
#216=EDGE_CURVE('',#178,#180,#104,.T.);
#217=EDGE_CURVE('',#180,#179,#105,.T.);
#218=EDGE_CURVE('',#179,#181,#106,.T.);
#219=EDGE_CURVE('',#182,#180,#107,.T.);
#220=EDGE_CURVE('',#181,#182,#108,.T.);
#221=EDGE_CURVE('',#177,#182,#109,.T.);
#222=EDGE_CURVE('',#181,#175,#110,.T.);
#223=EDGE_CURVE('',#183,#183,#15,.T.);
#224=EDGE_CURVE('',#183,#184,#111,.T.);
#225=EDGE_CURVE('',#184,#184,#16,.T.);
#226=EDGE_CURVE('',#185,#185,#17,.T.);
#227=EDGE_CURVE('',#185,#186,#112,.T.);
#228=EDGE_CURVE('',#186,#186,#18,.T.);
#229=EDGE_CURVE('',#187,#187,#19,.T.);
#230=EDGE_CURVE('',#187,#188,#113,.T.);
#231=EDGE_CURVE('',#188,#188,#20,.T.);
#232=EDGE_CURVE('',#189,#189,#21,.T.);
#233=EDGE_CURVE('',#189,#190,#114,.T.);
#234=EDGE_CURVE('',#190,#190,#22,.T.);
#235=EDGE_CURVE('',#191,#192,#115,.T.);
#236=EDGE_CURVE('',#192,#193,#116,.T.);
#237=EDGE_CURVE('',#193,#194,#117,.T.);
#238=EDGE_CURVE('',#194,#191,#118,.T.);
#239=EDGE_CURVE('',#195,#196,#119,.T.);
#240=EDGE_CURVE('',#196,#197,#120,.T.);
#241=EDGE_CURVE('',#197,#198,#121,.T.);
#242=EDGE_CURVE('',#198,#195,#122,.T.);
#243=EDGE_CURVE('',#194,#197,#123,.T.);
#244=EDGE_CURVE('',#191,#196,#124,.T.);
#245=EDGE_CURVE('',#193,#198,#125,.T.);
#246=EDGE_CURVE('',#192,#195,#126,.T.);
#247=ORIENTED_EDGE('',*,*,#199,.F.);
#248=ORIENTED_EDGE('',*,*,#200,.F.);
#249=ORIENTED_EDGE('',*,*,#201,.F.);
#250=ORIENTED_EDGE('',*,*,#202,.T.);
#251=ORIENTED_EDGE('',*,*,#203,.F.);
#252=ORIENTED_EDGE('',*,*,#202,.F.);
#253=ORIENTED_EDGE('',*,*,#204,.F.);
#254=ORIENTED_EDGE('',*,*,#205,.T.);
#255=ORIENTED_EDGE('',*,*,#206,.F.);
#256=ORIENTED_EDGE('',*,*,#205,.F.);
#257=ORIENTED_EDGE('',*,*,#207,.F.);
#258=ORIENTED_EDGE('',*,*,#208,.T.);
#259=ORIENTED_EDGE('',*,*,#209,.F.);
#260=ORIENTED_EDGE('',*,*,#208,.F.);
#261=ORIENTED_EDGE('',*,*,#210,.F.);
#262=ORIENTED_EDGE('',*,*,#200,.T.);
#263=ORIENTED_EDGE('',*,*,#211,.F.);
#264=ORIENTED_EDGE('',*,*,#212,.F.);
#265=ORIENTED_EDGE('',*,*,#213,.F.);
#266=ORIENTED_EDGE('',*,*,#214,.F.);
#267=ORIENTED_EDGE('',*,*,#206,.T.);
#268=ORIENTED_EDGE('',*,*,#209,.T.);
#269=ORIENTED_EDGE('',*,*,#199,.T.);
#270=ORIENTED_EDGE('',*,*,#203,.T.);
#271=ORIENTED_EDGE('',*,*,#215,.F.);
#272=ORIENTED_EDGE('',*,*,#214,.T.);
#273=ORIENTED_EDGE('',*,*,#216,.T.);
#274=ORIENTED_EDGE('',*,*,#217,.T.);
#275=ORIENTED_EDGE('',*,*,#218,.F.);
#276=ORIENTED_EDGE('',*,*,#217,.F.);
#277=ORIENTED_EDGE('',*,*,#219,.F.);
#278=ORIENTED_EDGE('',*,*,#220,.F.);
#279=ORIENTED_EDGE('',*,*,#216,.F.);
#280=ORIENTED_EDGE('',*,*,#213,.T.);
#281=ORIENTED_EDGE('',*,*,#221,.T.);
#282=ORIENTED_EDGE('',*,*,#219,.T.);
#283=ORIENTED_EDGE('',*,*,#222,.F.);
#284=ORIENTED_EDGE('',*,*,#220,.T.);
#285=ORIENTED_EDGE('',*,*,#221,.F.);
#286=ORIENTED_EDGE('',*,*,#212,.T.);
#287=ORIENTED_EDGE('',*,*,#223,.F.);
#288=ORIENTED_EDGE('',*,*,#224,.T.);
#289=ORIENTED_EDGE('',*,*,#225,.F.);
#290=ORIENTED_EDGE('',*,*,#224,.F.);
#291=ORIENTED_EDGE('',*,*,#223,.T.);
#292=ORIENTED_EDGE('',*,*,#226,.F.);
#293=ORIENTED_EDGE('',*,*,#227,.T.);
#294=ORIENTED_EDGE('',*,*,#228,.F.);
#295=ORIENTED_EDGE('',*,*,#227,.F.);
#296=ORIENTED_EDGE('',*,*,#226,.T.);
#297=ORIENTED_EDGE('',*,*,#229,.F.);
#298=ORIENTED_EDGE('',*,*,#230,.T.);
#299=ORIENTED_EDGE('',*,*,#231,.F.);
#300=ORIENTED_EDGE('',*,*,#230,.F.);
#301=ORIENTED_EDGE('',*,*,#229,.T.);
#302=ORIENTED_EDGE('',*,*,#232,.F.);
#303=ORIENTED_EDGE('',*,*,#233,.T.);
#304=ORIENTED_EDGE('',*,*,#234,.F.);
#305=ORIENTED_EDGE('',*,*,#233,.F.);
#306=ORIENTED_EDGE('',*,*,#232,.T.);
#307=ORIENTED_EDGE('',*,*,#235,.T.);
#308=ORIENTED_EDGE('',*,*,#236,.T.);
#309=ORIENTED_EDGE('',*,*,#237,.T.);
#310=ORIENTED_EDGE('',*,*,#238,.T.);
#311=ORIENTED_EDGE('',*,*,#207,.T.);
#312=ORIENTED_EDGE('',*,*,#204,.T.);
#313=ORIENTED_EDGE('',*,*,#201,.T.);
#314=ORIENTED_EDGE('',*,*,#210,.T.);
#315=ORIENTED_EDGE('',*,*,#239,.T.);
#316=ORIENTED_EDGE('',*,*,#240,.T.);
#317=ORIENTED_EDGE('',*,*,#241,.T.);
#318=ORIENTED_EDGE('',*,*,#242,.T.);
#319=ORIENTED_EDGE('',*,*,#243,.T.);
#320=ORIENTED_EDGE('',*,*,#240,.F.);
#321=ORIENTED_EDGE('',*,*,#244,.F.);
#322=ORIENTED_EDGE('',*,*,#238,.F.);
#323=ORIENTED_EDGE('',*,*,#245,.T.);
#324=ORIENTED_EDGE('',*,*,#241,.F.);
#325=ORIENTED_EDGE('',*,*,#243,.F.);
#326=ORIENTED_EDGE('',*,*,#237,.F.);
#327=ORIENTED_EDGE('',*,*,#246,.T.);
#328=ORIENTED_EDGE('',*,*,#242,.F.);
#329=ORIENTED_EDGE('',*,*,#245,.F.);
#330=ORIENTED_EDGE('',*,*,#236,.F.);
#331=ORIENTED_EDGE('',*,*,#218,.T.);
#332=ORIENTED_EDGE('',*,*,#222,.T.);
#333=ORIENTED_EDGE('',*,*,#211,.T.);
#334=ORIENTED_EDGE('',*,*,#215,.T.);
#335=ORIENTED_EDGE('',*,*,#225,.T.);
#336=ORIENTED_EDGE('',*,*,#228,.T.);
#337=ORIENTED_EDGE('',*,*,#231,.T.);
#338=ORIENTED_EDGE('',*,*,#234,.T.);
#339=ORIENTED_EDGE('',*,*,#244,.T.);
#340=ORIENTED_EDGE('',*,*,#239,.F.);
#341=ORIENTED_EDGE('',*,*,#246,.F.);
#342=ORIENTED_EDGE('',*,*,#235,.F.);
#343=PLANE('',#399);
#344=PLANE('',#400);
#345=PLANE('',#401);
#346=PLANE('',#402);
#347=PLANE('',#403);
#348=PLANE('',#404);
#349=PLANE('',#405);
#350=PLANE('',#406);
#351=PLANE('',#407);
#352=PLANE('',#411);
#353=PLANE('',#415);
#354=PLANE('',#419);
#355=PLANE('',#423);
#356=PLANE('',#424);
#357=PLANE('',#425);
#358=PLANE('',#426);
#359=PLANE('',#427);
#360=PLANE('',#428);
#361=PLANE('',#429);
#362=ADVANCED_FACE('',(#34),#343,.T.);
#363=ADVANCED_FACE('',(#35),#344,.T.);
#364=ADVANCED_FACE('',(#36),#345,.T.);
#365=ADVANCED_FACE('',(#37),#346,.T.);
#366=ADVANCED_FACE('',(#38,#27),#347,.F.);
#367=ADVANCED_FACE('',(#39),#348,.T.);
#368=ADVANCED_FACE('',(#40),#349,.T.);
#369=ADVANCED_FACE('',(#41),#350,.T.);
#370=ADVANCED_FACE('',(#42),#351,.T.);
#371=ADVANCED_FACE('',(#43),#23,.F.);
#372=ADVANCED_FACE('',(#44),#352,.T.);
#373=ADVANCED_FACE('',(#45),#24,.F.);
#374=ADVANCED_FACE('',(#46),#353,.T.);
#375=ADVANCED_FACE('',(#47),#25,.F.);
#376=ADVANCED_FACE('',(#48),#354,.T.);
#377=ADVANCED_FACE('',(#49),#26,.F.);
#378=ADVANCED_FACE('',(#50),#355,.T.);
#379=ADVANCED_FACE('',(#51,#28),#356,.T.);
#380=ADVANCED_FACE('',(#52),#357,.F.);
#381=ADVANCED_FACE('',(#53),#358,.F.);
#382=ADVANCED_FACE('',(#54),#359,.F.);
#383=ADVANCED_FACE('',(#55,#29,#30,#31,#32,#33),#360,.F.);
#384=ADVANCED_FACE('',(#56),#361,.F.);
#385=CLOSED_SHELL('',(#362,#363,#364,#365,#366,#367,#368,#369,#370,#371,
#372,#373,#374,#375,#376,#377,#378,#379,#380,#381,#382,#383,#384));
#386=DERIVED_UNIT_ELEMENT(#388,1.);
#387=DERIVED_UNIT_ELEMENT(#643,-3.);
#388=(
MASS_UNIT()
NAMED_UNIT(*)
SI_UNIT(.KILO.,.GRAM.)
);
#389=DERIVED_UNIT((#386,#387));
#390=MEASURE_REPRESENTATION_ITEM('density measure',
POSITIVE_RATIO_MEASURE(7850.),#389);
#391=PROPERTY_DEFINITION_REPRESENTATION(#396,#393);
#392=PROPERTY_DEFINITION_REPRESENTATION(#397,#394);
#393=REPRESENTATION('material name',(#395),#640);
#394=REPRESENTATION('density',(#390),#640);
#395=DESCRIPTIVE_REPRESENTATION_ITEM('Steel','Steel');
#396=PROPERTY_DEFINITION('material property','material name',#650);
#397=PROPERTY_DEFINITION('material property','density of part',#650);
#398=AXIS2_PLACEMENT_3D('',#534,#430,#431);
#399=AXIS2_PLACEMENT_3D('',#535,#432,#433);
#400=AXIS2_PLACEMENT_3D('',#544,#438,#439);
#401=AXIS2_PLACEMENT_3D('',#550,#443,#444);
#402=AXIS2_PLACEMENT_3D('',#556,#448,#449);
#403=AXIS2_PLACEMENT_3D('',#559,#452,#453);
#404=AXIS2_PLACEMENT_3D('',#568,#458,#459);
#405=AXIS2_PLACEMENT_3D('',#574,#463,#464);
#406=AXIS2_PLACEMENT_3D('',#580,#468,#469);
#407=AXIS2_PLACEMENT_3D('',#582,#471,#472);
#408=AXIS2_PLACEMENT_3D('',#584,#474,#475);
#409=AXIS2_PLACEMENT_3D('',#586,#476,#477);
#410=AXIS2_PLACEMENT_3D('',#589,#479,#480);
#411=AXIS2_PLACEMENT_3D('',#590,#481,#482);
#412=AXIS2_PLACEMENT_3D('',#591,#483,#484);
#413=AXIS2_PLACEMENT_3D('',#593,#485,#486);
#414=AXIS2_PLACEMENT_3D('',#596,#488,#489);
#415=AXIS2_PLACEMENT_3D('',#597,#490,#491);
#416=AXIS2_PLACEMENT_3D('',#598,#492,#493);
#417=AXIS2_PLACEMENT_3D('',#600,#494,#495);
#418=AXIS2_PLACEMENT_3D('',#603,#497,#498);
#419=AXIS2_PLACEMENT_3D('',#604,#499,#500);
#420=AXIS2_PLACEMENT_3D('',#605,#501,#502);
#421=AXIS2_PLACEMENT_3D('',#607,#503,#504);
#422=AXIS2_PLACEMENT_3D('',#610,#506,#507);
#423=AXIS2_PLACEMENT_3D('',#611,#508,#509);
#424=AXIS2_PLACEMENT_3D('',#612,#510,#511);
#425=AXIS2_PLACEMENT_3D('',#621,#516,#517);
#426=AXIS2_PLACEMENT_3D('',#630,#522,#523);
#427=AXIS2_PLACEMENT_3D('',#633,#526,#527);
#428=AXIS2_PLACEMENT_3D('',#635,#529,#530);
#429=AXIS2_PLACEMENT_3D('',#637,#532,#533);
#430=DIRECTION('axis',(0.,0.,1.));
#431=DIRECTION('refdir',(1.,0.,0.));
#432=DIRECTION('center_axis',(0.,2.10874337372848E-16,-1.));
#433=DIRECTION('ref_axis',(-1.,0.,0.));
#434=DIRECTION('',(-1.,0.,0.));
#435=DIRECTION('',(0.,1.,2.10874337372848E-16));
#436=DIRECTION('',(1.,0.,0.));
#437=DIRECTION('',(0.,1.,2.10874337372848E-16));
#438=DIRECTION('center_axis',(1.,0.,0.));
#439=DIRECTION('ref_axis',(0.,0.,-1.));
#440=DIRECTION('',(0.,-5.90988626587112E-16,-1.));
#441=DIRECTION('',(0.,6.00695974861399E-16,1.));
#442=DIRECTION('',(0.,1.,2.10874337372848E-16));
#443=DIRECTION('center_axis',(0.,-2.10874337372848E-16,1.));
#444=DIRECTION('ref_axis',(1.,0.,0.));
#445=DIRECTION('',(1.,0.,0.));
#446=DIRECTION('',(-1.,0.,0.));
#447=DIRECTION('',(0.,1.,2.10874337372848E-16));
#448=DIRECTION('center_axis',(-1.,0.,0.));
#449=DIRECTION('ref_axis',(0.,0.,1.));
#450=DIRECTION('',(0.,5.90988626587112E-16,1.));
#451=DIRECTION('',(0.,-6.00695974861399E-16,-1.));
#452=DIRECTION('center_axis',(0.,-1.,5.90988626587112E-16));
#453=DIRECTION('ref_axis',(0.,-5.90988626587112E-16,-1.));
#454=DIRECTION('',(-1.,0.,0.));
#455=DIRECTION('',(0.,5.90988626587112E-16,1.));
#456=DIRECTION('',(1.,0.,0.));
#457=DIRECTION('',(0.,-5.90988626587112E-16,-1.));
#458=DIRECTION('center_axis',(1.,0.,0.));
#459=DIRECTION('ref_axis',(0.,0.,-1.));
#460=DIRECTION('',(0.,1.,-2.3194658800061E-16));
#461=DIRECTION('',(0.,1.,-2.3251334789099E-16));
#462=DIRECTION('',(0.,5.90988626587112E-16,1.));
#463=DIRECTION('center_axis',(0.,-1.,5.90988626587112E-16));
#464=DIRECTION('ref_axis',(0.,-5.90988626587112E-16,-1.));
#465=DIRECTION('',(1.,0.,0.));
#466=DIRECTION('',(-1.,0.,0.));
#467=DIRECTION('',(0.,-5.90988626587112E-16,-1.));
#468=DIRECTION('center_axis',(0.,2.3251334789099E-16,1.));
#469=DIRECTION('ref_axis',(1.,0.,0.));
#470=DIRECTION('',(0.,1.,-2.3251334789099E-16));
#471=DIRECTION('center_axis',(-1.,0.,0.));
#472=DIRECTION('ref_axis',(0.,0.,1.));
#473=DIRECTION('',(0.,-1.,2.3194658800061E-16));
#474=DIRECTION('center_axis',(0.,2.08576396473438E-16,1.));
#475=DIRECTION('ref_axis',(1.,0.,0.));
#476=DIRECTION('center_axis',(0.,-1.54420803761317E-15,1.));
#477=DIRECTION('ref_axis',(1.,0.,0.));
#478=DIRECTION('',(0.,2.08576396473438E-16,1.));
#479=DIRECTION('center_axis',(0.,-2.3194658800061E-16,-1.));
#480=DIRECTION('ref_axis',(1.,0.,0.));
#481=DIRECTION('center_axis',(0.,-1.54420803761317E-15,1.));
#482=DIRECTION('ref_axis',(1.,0.,0.));
#483=DIRECTION('center_axis',(0.,2.08576396473438E-16,1.));
#484=DIRECTION('ref_axis',(1.,0.,0.));
#485=DIRECTION('center_axis',(0.,-1.54420803761317E-15,1.));
#486=DIRECTION('ref_axis',(1.,0.,0.));
#487=DIRECTION('',(0.,2.08576396473438E-16,1.));
#488=DIRECTION('center_axis',(0.,-2.3194658800061E-16,-1.));
#489=DIRECTION('ref_axis',(1.,0.,0.));
#490=DIRECTION('center_axis',(0.,-1.54420803761317E-15,1.));
#491=DIRECTION('ref_axis',(1.,0.,0.));
#492=DIRECTION('center_axis',(0.,2.08576396473438E-16,1.));
#493=DIRECTION('ref_axis',(1.,0.,0.));
#494=DIRECTION('center_axis',(0.,-1.54420803761317E-15,1.));
#495=DIRECTION('ref_axis',(1.,0.,0.));
#496=DIRECTION('',(0.,2.08576396473438E-16,1.));
#497=DIRECTION('center_axis',(0.,-2.3194658800061E-16,-1.));
#498=DIRECTION('ref_axis',(1.,0.,0.));
#499=DIRECTION('center_axis',(0.,-1.54420803761317E-15,1.));
#500=DIRECTION('ref_axis',(1.,0.,0.));
#501=DIRECTION('center_axis',(0.,2.08576396473438E-16,1.));
#502=DIRECTION('ref_axis',(1.,0.,0.));
#503=DIRECTION('center_axis',(0.,-1.54420803761317E-15,1.));
#504=DIRECTION('ref_axis',(1.,0.,0.));
#505=DIRECTION('',(0.,2.08576396473438E-16,1.));
#506=DIRECTION('center_axis',(0.,-2.3194658800061E-16,-1.));
#507=DIRECTION('ref_axis',(1.,0.,0.));
#508=DIRECTION('center_axis',(0.,-1.54420803761317E-15,1.));
#509=DIRECTION('ref_axis',(1.,0.,0.));
#510=DIRECTION('center_axis',(0.,-1.,6.00695974861399E-16));
#511=DIRECTION('ref_axis',(0.,-6.00695974861399E-16,-1.));
#512=DIRECTION('',(0.,6.00695974861399E-16,1.));
#513=DIRECTION('',(-1.,0.,0.));
#514=DIRECTION('',(0.,-6.00695974861399E-16,-1.));
#515=DIRECTION('',(1.,0.,0.));
#516=DIRECTION('center_axis',(0.,-1.,6.00695974861399E-16));
#517=DIRECTION('ref_axis',(0.,-6.00695974861399E-16,-1.));
#518=DIRECTION('',(0.,-6.00695974861399E-16,-1.));
#519=DIRECTION('',(-1.,0.,0.));
#520=DIRECTION('',(0.,6.00695974861399E-16,1.));
#521=DIRECTION('',(1.,0.,0.));
#522=DIRECTION('center_axis',(0.,2.3194658800061E-16,1.));
#523=DIRECTION('ref_axis',(1.,0.,0.));
#524=DIRECTION('',(0.,1.,-2.3194658800061E-16));
#525=DIRECTION('',(0.,1.,-2.3194658800061E-16));
#526=DIRECTION('center_axis',(1.,0.,0.));
#527=DIRECTION('ref_axis',(0.,0.,-1.));
#528=DIRECTION('',(0.,1.,-2.3194658800061E-16));
#529=DIRECTION('center_axis',(0.,-2.3194658800061E-16,-1.));
#530=DIRECTION('ref_axis',(-1.,0.,0.));
#531=DIRECTION('',(0.,1.,-2.3194658800061E-16));
#532=DIRECTION('center_axis',(-1.,0.,0.));
#533=DIRECTION('ref_axis',(0.,0.,1.));
#534=CARTESIAN_POINT('',(0.,0.,0.));
#535=CARTESIAN_POINT('Origin',(-2.03838210983198,-33.3930015563965,11.0085));
#536=CARTESIAN_POINT('',(1.97011789016802,-33.3985038146972,11.0085));
#537=CARTESIAN_POINT('',(-6.04688210983198,-33.3985038146972,11.0085));
#538=CARTESIAN_POINT('',(-2.08169105491599,-33.3985038146972,11.0085));
#539=CARTESIAN_POINT('',(1.97011789016802,-43.3900038146972,11.0085));
#540=CARTESIAN_POINT('',(1.97011789016802,-33.3930015563965,11.0085));
#541=CARTESIAN_POINT('',(-6.04688210983198,-43.3900038146972,11.0085));
#542=CARTESIAN_POINT('',(-1.7066910549161,-43.3900038146972,11.0085));
#543=CARTESIAN_POINT('',(-6.04688210983198,-33.3930015563965,11.0085));
#544=CARTESIAN_POINT('Origin',(-6.04688210983198,-33.3930015563965,7.50000000000002));
#545=CARTESIAN_POINT('',(-6.04688210983198,-33.3985038146972,3.99150000000002));
#546=CARTESIAN_POINT('',(-6.04688210983198,-33.3985038146972,7.75000000000001));
#547=CARTESIAN_POINT('',(-6.04688210983198,-43.3900038146972,3.99150000000001));
#548=CARTESIAN_POINT('',(-6.04688210983198,-43.3900038146972,7.00000000000002));
#549=CARTESIAN_POINT('',(-6.04688210983198,-33.3930015563965,3.99150000000002));
#550=CARTESIAN_POINT('Origin',(-2.03838210983198,-33.3930015563965,3.99150000000002));
#551=CARTESIAN_POINT('',(1.97011789016802,-33.3985038146972,3.99150000000002));
#552=CARTESIAN_POINT('',(-2.08169105491599,-33.3985038146972,3.99150000000002));
#553=CARTESIAN_POINT('',(1.97011789016802,-43.3900038146972,3.99150000000001));
#554=CARTESIAN_POINT('',(-1.7066910549161,-43.3900038146972,3.99150000000001));
#555=CARTESIAN_POINT('',(1.97011789016802,-33.3930015563965,3.99150000000002));
#556=CARTESIAN_POINT('Origin',(1.97011789016802,-33.3930015563965,7.50000000000002));
#557=CARTESIAN_POINT('',(1.97011789016802,-33.3985038146972,7.75000000000001));
#558=CARTESIAN_POINT('',(1.97011789016802,-43.3900038146972,7.00000000000002));
#559=CARTESIAN_POINT('Origin',(-2.12500000000001,-33.3985038146972,8.00000000000001));
#560=CARTESIAN_POINT('',(47.5085,-33.3985038146972,13.));
#561=CARTESIAN_POINT('',(-51.7585,-33.3985038146972,13.));
#562=CARTESIAN_POINT('',(-1.75000000000012,-33.3985038146972,13.));
#563=CARTESIAN_POINT('',(47.5085,-33.3985038146972,2.99150000000001));
#564=CARTESIAN_POINT('',(47.5085,-33.3985038146972,8.00000000000001));
#565=CARTESIAN_POINT('',(-51.7585,-33.3985038146972,2.99150000000001));
#566=CARTESIAN_POINT('',(-2.12500000000001,-33.3985038146972,2.99150000000001));
#567=CARTESIAN_POINT('',(-51.7585,-33.3985038146972,8.00000000000001));
#568=CARTESIAN_POINT('Origin',(-51.7585,-3.19500381469724,8.));
#569=CARTESIAN_POINT('',(-51.7585,27.0084961853028,13.));
#570=CARTESIAN_POINT('',(-51.7585,-3.19500381469729,13.));
#571=CARTESIAN_POINT('',(-51.7585,27.0084961853028,2.99149999999999));
#572=CARTESIAN_POINT('',(-51.7585,-3.19500381469724,2.9915));
#573=CARTESIAN_POINT('',(-51.7585,27.0084961853028,7.99999999999999));
#574=CARTESIAN_POINT('Origin',(-2.12500000000001,27.0084961853028,7.99999999999999));
#575=CARTESIAN_POINT('',(47.5085,27.0084961853028,13.));
#576=CARTESIAN_POINT('',(-1.75000000000012,27.0084961853028,13.));
#577=CARTESIAN_POINT('',(47.5085,27.0084961853028,2.99149999999999));
#578=CARTESIAN_POINT('',(-2.12500000000001,27.0084961853028,2.99149999999999));
#579=CARTESIAN_POINT('',(47.5085,27.0084961853028,7.99999999999999));
#580=CARTESIAN_POINT('Origin',(-2.12500000000001,-3.19500381469724,2.9915));
#581=CARTESIAN_POINT('',(47.5085,-3.19500381469724,2.9915));
#582=CARTESIAN_POINT('Origin',(47.5085,-3.19500381469724,8.));
#583=CARTESIAN_POINT('',(47.5085,-3.19500381469729,13.));
#584=CARTESIAN_POINT('Origin',(-56.2,-38.4500038146972,2.9915));
#585=CARTESIAN_POINT('',(-57.6585,-38.4500038146972,2.9915));
#586=CARTESIAN_POINT('Origin',(-56.2,-38.4500038146972,2.9915));
#587=CARTESIAN_POINT('',(-57.6585,-38.4500038146972,13.));
#588=CARTESIAN_POINT('',(-57.6585,-38.4500038146972,2.9915));
#589=CARTESIAN_POINT('Origin',(-56.2,-38.4500038146972,13.));
#590=CARTESIAN_POINT('Origin',(-56.2,-38.4500038146972,2.9915));
#591=CARTESIAN_POINT('Origin',(-56.2,31.5499961853028,2.9915));
#592=CARTESIAN_POINT('',(-57.6585,31.5499961853028,2.9915));
#593=CARTESIAN_POINT('Origin',(-56.2,31.5499961853028,2.9915));
#594=CARTESIAN_POINT('',(-57.6585,31.5499961853028,13.));
#595=CARTESIAN_POINT('',(-57.6585,31.5499961853028,2.9915));
#596=CARTESIAN_POINT('Origin',(-56.2,31.5499961853028,13.));
#597=CARTESIAN_POINT('Origin',(-56.2,31.5499961853028,2.9915));
#598=CARTESIAN_POINT('Origin',(52.8,31.4499961853028,2.9915));
#599=CARTESIAN_POINT('',(51.3415,31.4499961853028,2.9915));
#600=CARTESIAN_POINT('Origin',(52.8,31.4499961853028,2.9915));
#601=CARTESIAN_POINT('',(51.3415,31.4499961853028,13.));
#602=CARTESIAN_POINT('',(51.3415,31.4499961853028,2.9915));
#603=CARTESIAN_POINT('Origin',(52.8,31.4499961853028,13.));
#604=CARTESIAN_POINT('Origin',(52.8,31.4499961853028,2.9915));
#605=CARTESIAN_POINT('Origin',(52.8,-38.5500038146972,2.9915));
#606=CARTESIAN_POINT('',(51.3415,-38.5500038146972,2.9915));
#607=CARTESIAN_POINT('Origin',(52.8,-38.5500038146972,2.9915));
#608=CARTESIAN_POINT('',(51.3415,-38.5500038146972,13.));
#609=CARTESIAN_POINT('',(51.3415,-38.5500038146972,2.9915));
#610=CARTESIAN_POINT('Origin',(52.8,-38.5500038146972,13.));
#611=CARTESIAN_POINT('Origin',(52.8,-38.5500038146972,2.9915));
#612=CARTESIAN_POINT('Origin',(-1.37500000000023,-43.3900038146972,6.50000000000001));
#613=CARTESIAN_POINT('',(58.2499999999995,-43.3900038146972,1.04333169763426E-14));
#614=CARTESIAN_POINT('',(58.2499999999995,-43.3900038146972,13.));
#615=CARTESIAN_POINT('',(58.2499999999995,-43.3900038146972,6.50000000000001));
#616=CARTESIAN_POINT('',(-61.,-43.3900038146972,13.));
#617=CARTESIAN_POINT('',(-1.37500000000023,-43.3900038146972,13.));
#618=CARTESIAN_POINT('',(-61.,-43.3900038146972,1.04333169763426E-14));
#619=CARTESIAN_POINT('',(-61.,-43.3900038146972,6.50000000000001));
#620=CARTESIAN_POINT('',(-1.37500000000023,-43.3900038146972,1.04333169763426E-14));
#621=CARTESIAN_POINT('Origin',(-1.37500000000023,36.9999961853026,6.49999999999999));
#622=CARTESIAN_POINT('',(58.2499999999995,36.9999961853026,13.));
#623=CARTESIAN_POINT('',(58.2499999999995,36.9999961853026,-8.2128692330264E-15));
#624=CARTESIAN_POINT('',(58.2499999999995,36.9999961853026,6.49999999999999));
#625=CARTESIAN_POINT('',(-61.,36.9999961853026,-8.2128692330264E-15));
#626=CARTESIAN_POINT('',(-1.37500000000023,36.9999961853026,-8.2128692330264E-15));
#627=CARTESIAN_POINT('',(-61.,36.9999961853026,13.));
#628=CARTESIAN_POINT('',(-61.,36.9999961853026,6.49999999999999));
#629=CARTESIAN_POINT('',(-1.37500000000023,36.9999961853026,13.));
#630=CARTESIAN_POINT('Origin',(-1.37500000000023,-3.19500381469734,1.1102238716581E-15));
#631=CARTESIAN_POINT('',(-61.,-3.19500381469734,1.1102238716581E-15));
#632=CARTESIAN_POINT('',(58.2499999999995,-3.19500381469734,1.1102238716581E-15));
#633=CARTESIAN_POINT('Origin',(-61.,-3.19500381469734,6.5));
#634=CARTESIAN_POINT('',(-61.,-3.19500381469734,13.));
#635=CARTESIAN_POINT('Origin',(-1.37500000000023,-3.19500381469734,13.));
#636=CARTESIAN_POINT('',(58.2499999999995,-3.19500381469734,13.));
#637=CARTESIAN_POINT('Origin',(58.2499999999995,-3.19500381469734,6.5));
#638=UNCERTAINTY_MEASURE_WITH_UNIT(LENGTH_MEASURE(0.01),#642,
'DISTANCE_ACCURACY_VALUE',
'Maximum model space distance between geometric entities at asserted c
onnectivities');
#639=UNCERTAINTY_MEASURE_WITH_UNIT(LENGTH_MEASURE(0.01),#642,
'DISTANCE_ACCURACY_VALUE',
'Maximum model space distance between geometric entities at asserted c
onnectivities');
#640=(
GEOMETRIC_REPRESENTATION_CONTEXT(3)
GLOBAL_UNCERTAINTY_ASSIGNED_CONTEXT((#638))
GLOBAL_UNIT_ASSIGNED_CONTEXT((#642,#644,#645))
REPRESENTATION_CONTEXT('','3D')
);
#641=(
GEOMETRIC_REPRESENTATION_CONTEXT(3)
GLOBAL_UNCERTAINTY_ASSIGNED_CONTEXT((#639))
GLOBAL_UNIT_ASSIGNED_CONTEXT((#642,#644,#645))
REPRESENTATION_CONTEXT('','3D')
);
#642=(
LENGTH_UNIT()
NAMED_UNIT(*)
SI_UNIT(.MILLI.,.METRE.)
);
#643=(
LENGTH_UNIT()
NAMED_UNIT(*)
SI_UNIT($,.METRE.)
);
#644=(
NAMED_UNIT(*)
PLANE_ANGLE_UNIT()
SI_UNIT($,.RADIAN.)
);
#645=(
NAMED_UNIT(*)
SI_UNIT($,.STERADIAN.)
SOLID_ANGLE_UNIT()
);
#646=SHAPE_DEFINITION_REPRESENTATION(#647,#648);
#647=PRODUCT_DEFINITION_SHAPE('',$,#650);
#648=SHAPE_REPRESENTATION('',(#398),#640);
#649=PRODUCT_DEFINITION_CONTEXT('part definition',#654,'design');
#650=PRODUCT_DEFINITION('2026-09-13-03-24-21-029','Hackpad_Body',#651,#649);
#651=PRODUCT_DEFINITION_FORMATION('',$,#656);
#652=PRODUCT_RELATED_PRODUCT_CATEGORY('Hackpad_Body','Hackpad_Body',(#656));
#653=APPLICATION_PROTOCOL_DEFINITION('international standard',
'automotive_design',2009,#654);
#654=APPLICATION_CONTEXT(
'Core Data for Automotive Mechanical Design Process');
#655=PRODUCT_CONTEXT('part definition',#654,'mechanical');
#656=PRODUCT('2026-09-13-03-24-21-029','Hackpad_Body',$,(#655));
#657=PRESENTATION_STYLE_ASSIGNMENT((#659));
#658=PRESENTATION_STYLE_ASSIGNMENT((#660));
#659=SURFACE_STYLE_USAGE(.BOTH.,#661);
#660=SURFACE_STYLE_USAGE(.BOTH.,#662);
#661=SURFACE_SIDE_STYLE('',(#663));
#662=SURFACE_SIDE_STYLE('',(#664));
#663=SURFACE_STYLE_FILL_AREA(#665);
#664=SURFACE_STYLE_FILL_AREA(#666);
#665=FILL_AREA_STYLE('Steel - Satin',(#667));
#666=FILL_AREA_STYLE('Opaque(43,46,49)',(#668));
#667=FILL_AREA_STYLE_COLOUR('Steel - Satin',#669);
#668=FILL_AREA_STYLE_COLOUR('Opaque(43,46,49)',#670);
#669=COLOUR_RGB('Steel - Satin',0.627450980392157,0.627450980392157,0.627450980392157);
#670=COLOUR_RGB('Opaque(43,46,49)',0.168627450980392,0.180392156862745,
0.192156862745098);
ENDSEC;
END-ISO-10303-21;
