%TF.GenerationSoftware,KiCad,Pcbnew,9.0.7*%
%TF.CreationDate,2026-09-09T00:36:29+08:00*%
%TF.ProjectId,hackpad,6861636b-7061-4642-9e6b-696361645f70,rev?*%
%TF.SameCoordinates,Original*%
%TF.FileFunction,Soldermask,Top*%
%TF.FilePolarity,Negative*%
%FSLAX46Y46*%
G04 Gerber Fmt 4.6, Leading zero omitted, Abs format (unit mm)*
G04 Created by KiCad (PCBNEW 9.0.7) date 2026-09-09 00:36:29*
%MOMM*%
%LPD*%
G01*
G04 APERTURE LIST*
%ADD10C,1.700000*%
%ADD11C,4.000000*%
%ADD12C,2.200000*%
%ADD13R,3.500000X1.700000*%
%ADD14O,3.600000X1.700000*%
%ADD15O,3.700000X1.700000*%
G04 APERTURE END LIST*
D10*
%TO.C,SW2*%
X138900000Y-74750000D03*
D11*
X143980000Y-74750000D03*
D10*
X149060000Y-74750000D03*
D12*
X146520000Y-69670000D03*
X140170000Y-72210000D03*
%TD*%
D10*
%TO.C,SW10*%
X196390000Y-93780000D03*
D11*
X201470000Y-93780000D03*
D10*
X206550000Y-93780000D03*
D12*
X204010000Y-88700000D03*
X197660000Y-91240000D03*
%TD*%
D13*
%TO.C,U1*%
X154680000Y-46250000D03*
D14*
X154680000Y-48790000D03*
X154680000Y-51330000D03*
X154680000Y-53870000D03*
X154680000Y-56410000D03*
X154680000Y-58950000D03*
X154680000Y-61490000D03*
X171930000Y-61490000D03*
X171930000Y-58950000D03*
X171930000Y-56410000D03*
D15*
X171930000Y-53870000D03*
X171930000Y-51330000D03*
X171930000Y-48790000D03*
X171930000Y-46250000D03*
%TD*%
D10*
%TO.C,SW3*%
X158070000Y-74750000D03*
D11*
X163150000Y-74750000D03*
D10*
X168230000Y-74750000D03*
D12*
X165690000Y-69670000D03*
X159340000Y-72210000D03*
%TD*%
D10*
%TO.C,SW6*%
X119710000Y-93810000D03*
D11*
X124790000Y-93810000D03*
D10*
X129870000Y-93810000D03*
D12*
X127330000Y-88730000D03*
X120980000Y-91270000D03*
%TD*%
D10*
%TO.C,SW5*%
X196420000Y-74750000D03*
D11*
X201500000Y-74750000D03*
D10*
X206580000Y-74750000D03*
D12*
X204040000Y-69670000D03*
X197690000Y-72210000D03*
%TD*%
D10*
%TO.C,SW4*%
X177240000Y-74750000D03*
D11*
X182320000Y-74750000D03*
D10*
X187400000Y-74750000D03*
D12*
X184860000Y-69670000D03*
X178510000Y-72210000D03*
%TD*%
D10*
%TO.C,SW9*%
X177160000Y-93780000D03*
D11*
X182240000Y-93780000D03*
D10*
X187320000Y-93780000D03*
D12*
X184780000Y-88700000D03*
X178430000Y-91240000D03*
%TD*%
D10*
%TO.C,SW8*%
X158060000Y-93810000D03*
D11*
X163140000Y-93810000D03*
D10*
X168220000Y-93810000D03*
D12*
X165680000Y-88730000D03*
X159330000Y-91270000D03*
%TD*%
D10*
%TO.C,SW1*%
X119710000Y-74750000D03*
D11*
X124790000Y-74750000D03*
D10*
X129870000Y-74750000D03*
D12*
X127330000Y-69670000D03*
X120980000Y-72210000D03*
%TD*%
D10*
%TO.C,SW7*%
X138870000Y-93780000D03*
D11*
X143950000Y-93780000D03*
D10*
X149030000Y-93780000D03*
D12*
X146490000Y-88700000D03*
X140140000Y-91240000D03*
%TD*%
M02*
