%TF.GenerationSoftware,KiCad,Pcbnew,9.0.7*%
%TF.CreationDate,2026-09-09T00:36:29+08:00*%
%TF.ProjectId,hackpad,6861636b-7061-4642-9e6b-696361645f70,rev?*%
%TF.SameCoordinates,Original*%
%TF.FileFunction,Legend,Top*%
%TF.FilePolarity,Positive*%
%FSLAX46Y46*%
G04 Gerber Fmt 4.6, Leading zero omitted, Abs format (unit mm)*
G04 Created by KiCad (PCBNEW 9.0.7) date 2026-09-09 00:36:29*
%MOMM*%
%LPD*%
G01*
G04 APERTURE LIST*
%ADD10C,0.150000*%
%ADD11C,0.101600*%
%ADD12C,0.120000*%
%ADD13C,0.127000*%
%ADD14C,0.254000*%
%ADD15C,0.025400*%
G04 APERTURE END LIST*
D10*
X142646667Y-67283200D02*
X142789524Y-67330819D01*
X142789524Y-67330819D02*
X143027619Y-67330819D01*
X143027619Y-67330819D02*
X143122857Y-67283200D01*
X143122857Y-67283200D02*
X143170476Y-67235580D01*
X143170476Y-67235580D02*
X143218095Y-67140342D01*
X143218095Y-67140342D02*
X143218095Y-67045104D01*
X143218095Y-67045104D02*
X143170476Y-66949866D01*
X143170476Y-66949866D02*
X143122857Y-66902247D01*
X143122857Y-66902247D02*
X143027619Y-66854628D01*
X143027619Y-66854628D02*
X142837143Y-66807009D01*
X142837143Y-66807009D02*
X142741905Y-66759390D01*
X142741905Y-66759390D02*
X142694286Y-66711771D01*
X142694286Y-66711771D02*
X142646667Y-66616533D01*
X142646667Y-66616533D02*
X142646667Y-66521295D01*
X142646667Y-66521295D02*
X142694286Y-66426057D01*
X142694286Y-66426057D02*
X142741905Y-66378438D01*
X142741905Y-66378438D02*
X142837143Y-66330819D01*
X142837143Y-66330819D02*
X143075238Y-66330819D01*
X143075238Y-66330819D02*
X143218095Y-66378438D01*
X143551429Y-66330819D02*
X143789524Y-67330819D01*
X143789524Y-67330819D02*
X143980000Y-66616533D01*
X143980000Y-66616533D02*
X144170476Y-67330819D01*
X144170476Y-67330819D02*
X144408572Y-66330819D01*
X144741905Y-66426057D02*
X144789524Y-66378438D01*
X144789524Y-66378438D02*
X144884762Y-66330819D01*
X144884762Y-66330819D02*
X145122857Y-66330819D01*
X145122857Y-66330819D02*
X145218095Y-66378438D01*
X145218095Y-66378438D02*
X145265714Y-66426057D01*
X145265714Y-66426057D02*
X145313333Y-66521295D01*
X145313333Y-66521295D02*
X145313333Y-66616533D01*
X145313333Y-66616533D02*
X145265714Y-66759390D01*
X145265714Y-66759390D02*
X144694286Y-67330819D01*
X144694286Y-67330819D02*
X145313333Y-67330819D01*
X199660476Y-86313200D02*
X199803333Y-86360819D01*
X199803333Y-86360819D02*
X200041428Y-86360819D01*
X200041428Y-86360819D02*
X200136666Y-86313200D01*
X200136666Y-86313200D02*
X200184285Y-86265580D01*
X200184285Y-86265580D02*
X200231904Y-86170342D01*
X200231904Y-86170342D02*
X200231904Y-86075104D01*
X200231904Y-86075104D02*
X200184285Y-85979866D01*
X200184285Y-85979866D02*
X200136666Y-85932247D01*
X200136666Y-85932247D02*
X200041428Y-85884628D01*
X200041428Y-85884628D02*
X199850952Y-85837009D01*
X199850952Y-85837009D02*
X199755714Y-85789390D01*
X199755714Y-85789390D02*
X199708095Y-85741771D01*
X199708095Y-85741771D02*
X199660476Y-85646533D01*
X199660476Y-85646533D02*
X199660476Y-85551295D01*
X199660476Y-85551295D02*
X199708095Y-85456057D01*
X199708095Y-85456057D02*
X199755714Y-85408438D01*
X199755714Y-85408438D02*
X199850952Y-85360819D01*
X199850952Y-85360819D02*
X200089047Y-85360819D01*
X200089047Y-85360819D02*
X200231904Y-85408438D01*
X200565238Y-85360819D02*
X200803333Y-86360819D01*
X200803333Y-86360819D02*
X200993809Y-85646533D01*
X200993809Y-85646533D02*
X201184285Y-86360819D01*
X201184285Y-86360819D02*
X201422381Y-85360819D01*
X202327142Y-86360819D02*
X201755714Y-86360819D01*
X202041428Y-86360819D02*
X202041428Y-85360819D01*
X202041428Y-85360819D02*
X201946190Y-85503676D01*
X201946190Y-85503676D02*
X201850952Y-85598914D01*
X201850952Y-85598914D02*
X201755714Y-85646533D01*
X202946190Y-85360819D02*
X203041428Y-85360819D01*
X203041428Y-85360819D02*
X203136666Y-85408438D01*
X203136666Y-85408438D02*
X203184285Y-85456057D01*
X203184285Y-85456057D02*
X203231904Y-85551295D01*
X203231904Y-85551295D02*
X203279523Y-85741771D01*
X203279523Y-85741771D02*
X203279523Y-85979866D01*
X203279523Y-85979866D02*
X203231904Y-86170342D01*
X203231904Y-86170342D02*
X203184285Y-86265580D01*
X203184285Y-86265580D02*
X203136666Y-86313200D01*
X203136666Y-86313200D02*
X203041428Y-86360819D01*
X203041428Y-86360819D02*
X202946190Y-86360819D01*
X202946190Y-86360819D02*
X202850952Y-86313200D01*
X202850952Y-86313200D02*
X202803333Y-86265580D01*
X202803333Y-86265580D02*
X202755714Y-86170342D01*
X202755714Y-86170342D02*
X202708095Y-85979866D01*
X202708095Y-85979866D02*
X202708095Y-85741771D01*
X202708095Y-85741771D02*
X202755714Y-85551295D01*
X202755714Y-85551295D02*
X202803333Y-85456057D01*
X202803333Y-85456057D02*
X202850952Y-85408438D01*
X202850952Y-85408438D02*
X202946190Y-85360819D01*
D11*
X162627666Y-55926985D02*
X162627666Y-56646652D01*
X162627666Y-56646652D02*
X162670000Y-56731318D01*
X162670000Y-56731318D02*
X162712333Y-56773652D01*
X162712333Y-56773652D02*
X162797000Y-56815985D01*
X162797000Y-56815985D02*
X162966333Y-56815985D01*
X162966333Y-56815985D02*
X163051000Y-56773652D01*
X163051000Y-56773652D02*
X163093333Y-56731318D01*
X163093333Y-56731318D02*
X163135666Y-56646652D01*
X163135666Y-56646652D02*
X163135666Y-55926985D01*
X164024666Y-56815985D02*
X163516666Y-56815985D01*
X163770666Y-56815985D02*
X163770666Y-55926985D01*
X163770666Y-55926985D02*
X163685999Y-56053985D01*
X163685999Y-56053985D02*
X163601333Y-56138652D01*
X163601333Y-56138652D02*
X163516666Y-56180985D01*
D10*
X158543095Y-52777200D02*
X158685952Y-52824819D01*
X158685952Y-52824819D02*
X158924047Y-52824819D01*
X158924047Y-52824819D02*
X159019285Y-52777200D01*
X159019285Y-52777200D02*
X159066904Y-52729580D01*
X159066904Y-52729580D02*
X159114523Y-52634342D01*
X159114523Y-52634342D02*
X159114523Y-52539104D01*
X159114523Y-52539104D02*
X159066904Y-52443866D01*
X159066904Y-52443866D02*
X159019285Y-52396247D01*
X159019285Y-52396247D02*
X158924047Y-52348628D01*
X158924047Y-52348628D02*
X158733571Y-52301009D01*
X158733571Y-52301009D02*
X158638333Y-52253390D01*
X158638333Y-52253390D02*
X158590714Y-52205771D01*
X158590714Y-52205771D02*
X158543095Y-52110533D01*
X158543095Y-52110533D02*
X158543095Y-52015295D01*
X158543095Y-52015295D02*
X158590714Y-51920057D01*
X158590714Y-51920057D02*
X158638333Y-51872438D01*
X158638333Y-51872438D02*
X158733571Y-51824819D01*
X158733571Y-51824819D02*
X158971666Y-51824819D01*
X158971666Y-51824819D02*
X159114523Y-51872438D01*
X159924047Y-52777200D02*
X159828809Y-52824819D01*
X159828809Y-52824819D02*
X159638333Y-52824819D01*
X159638333Y-52824819D02*
X159543095Y-52777200D01*
X159543095Y-52777200D02*
X159495476Y-52681961D01*
X159495476Y-52681961D02*
X159495476Y-52301009D01*
X159495476Y-52301009D02*
X159543095Y-52205771D01*
X159543095Y-52205771D02*
X159638333Y-52158152D01*
X159638333Y-52158152D02*
X159828809Y-52158152D01*
X159828809Y-52158152D02*
X159924047Y-52205771D01*
X159924047Y-52205771D02*
X159971666Y-52301009D01*
X159971666Y-52301009D02*
X159971666Y-52396247D01*
X159971666Y-52396247D02*
X159495476Y-52491485D01*
X160781190Y-52777200D02*
X160685952Y-52824819D01*
X160685952Y-52824819D02*
X160495476Y-52824819D01*
X160495476Y-52824819D02*
X160400238Y-52777200D01*
X160400238Y-52777200D02*
X160352619Y-52681961D01*
X160352619Y-52681961D02*
X160352619Y-52301009D01*
X160352619Y-52301009D02*
X160400238Y-52205771D01*
X160400238Y-52205771D02*
X160495476Y-52158152D01*
X160495476Y-52158152D02*
X160685952Y-52158152D01*
X160685952Y-52158152D02*
X160781190Y-52205771D01*
X160781190Y-52205771D02*
X160828809Y-52301009D01*
X160828809Y-52301009D02*
X160828809Y-52396247D01*
X160828809Y-52396247D02*
X160352619Y-52491485D01*
X161638333Y-52777200D02*
X161543095Y-52824819D01*
X161543095Y-52824819D02*
X161352619Y-52824819D01*
X161352619Y-52824819D02*
X161257381Y-52777200D01*
X161257381Y-52777200D02*
X161209762Y-52681961D01*
X161209762Y-52681961D02*
X161209762Y-52301009D01*
X161209762Y-52301009D02*
X161257381Y-52205771D01*
X161257381Y-52205771D02*
X161352619Y-52158152D01*
X161352619Y-52158152D02*
X161543095Y-52158152D01*
X161543095Y-52158152D02*
X161638333Y-52205771D01*
X161638333Y-52205771D02*
X161685952Y-52301009D01*
X161685952Y-52301009D02*
X161685952Y-52396247D01*
X161685952Y-52396247D02*
X161209762Y-52491485D01*
X162543095Y-52824819D02*
X162543095Y-51824819D01*
X162543095Y-52777200D02*
X162447857Y-52824819D01*
X162447857Y-52824819D02*
X162257381Y-52824819D01*
X162257381Y-52824819D02*
X162162143Y-52777200D01*
X162162143Y-52777200D02*
X162114524Y-52729580D01*
X162114524Y-52729580D02*
X162066905Y-52634342D01*
X162066905Y-52634342D02*
X162066905Y-52348628D01*
X162066905Y-52348628D02*
X162114524Y-52253390D01*
X162114524Y-52253390D02*
X162162143Y-52205771D01*
X162162143Y-52205771D02*
X162257381Y-52158152D01*
X162257381Y-52158152D02*
X162447857Y-52158152D01*
X162447857Y-52158152D02*
X162543095Y-52205771D01*
X163733572Y-52777200D02*
X163876429Y-52824819D01*
X163876429Y-52824819D02*
X164114524Y-52824819D01*
X164114524Y-52824819D02*
X164209762Y-52777200D01*
X164209762Y-52777200D02*
X164257381Y-52729580D01*
X164257381Y-52729580D02*
X164305000Y-52634342D01*
X164305000Y-52634342D02*
X164305000Y-52539104D01*
X164305000Y-52539104D02*
X164257381Y-52443866D01*
X164257381Y-52443866D02*
X164209762Y-52396247D01*
X164209762Y-52396247D02*
X164114524Y-52348628D01*
X164114524Y-52348628D02*
X163924048Y-52301009D01*
X163924048Y-52301009D02*
X163828810Y-52253390D01*
X163828810Y-52253390D02*
X163781191Y-52205771D01*
X163781191Y-52205771D02*
X163733572Y-52110533D01*
X163733572Y-52110533D02*
X163733572Y-52015295D01*
X163733572Y-52015295D02*
X163781191Y-51920057D01*
X163781191Y-51920057D02*
X163828810Y-51872438D01*
X163828810Y-51872438D02*
X163924048Y-51824819D01*
X163924048Y-51824819D02*
X164162143Y-51824819D01*
X164162143Y-51824819D02*
X164305000Y-51872438D01*
X164590715Y-52158152D02*
X164971667Y-52158152D01*
X164733572Y-51824819D02*
X164733572Y-52681961D01*
X164733572Y-52681961D02*
X164781191Y-52777200D01*
X164781191Y-52777200D02*
X164876429Y-52824819D01*
X164876429Y-52824819D02*
X164971667Y-52824819D01*
X165733572Y-52158152D02*
X165733572Y-52824819D01*
X165305001Y-52158152D02*
X165305001Y-52681961D01*
X165305001Y-52681961D02*
X165352620Y-52777200D01*
X165352620Y-52777200D02*
X165447858Y-52824819D01*
X165447858Y-52824819D02*
X165590715Y-52824819D01*
X165590715Y-52824819D02*
X165685953Y-52777200D01*
X165685953Y-52777200D02*
X165733572Y-52729580D01*
X166638334Y-52824819D02*
X166638334Y-51824819D01*
X166638334Y-52777200D02*
X166543096Y-52824819D01*
X166543096Y-52824819D02*
X166352620Y-52824819D01*
X166352620Y-52824819D02*
X166257382Y-52777200D01*
X166257382Y-52777200D02*
X166209763Y-52729580D01*
X166209763Y-52729580D02*
X166162144Y-52634342D01*
X166162144Y-52634342D02*
X166162144Y-52348628D01*
X166162144Y-52348628D02*
X166209763Y-52253390D01*
X166209763Y-52253390D02*
X166257382Y-52205771D01*
X166257382Y-52205771D02*
X166352620Y-52158152D01*
X166352620Y-52158152D02*
X166543096Y-52158152D01*
X166543096Y-52158152D02*
X166638334Y-52205771D01*
X167114525Y-52824819D02*
X167114525Y-52158152D01*
X167114525Y-51824819D02*
X167066906Y-51872438D01*
X167066906Y-51872438D02*
X167114525Y-51920057D01*
X167114525Y-51920057D02*
X167162144Y-51872438D01*
X167162144Y-51872438D02*
X167114525Y-51824819D01*
X167114525Y-51824819D02*
X167114525Y-51920057D01*
X167733572Y-52824819D02*
X167638334Y-52777200D01*
X167638334Y-52777200D02*
X167590715Y-52729580D01*
X167590715Y-52729580D02*
X167543096Y-52634342D01*
X167543096Y-52634342D02*
X167543096Y-52348628D01*
X167543096Y-52348628D02*
X167590715Y-52253390D01*
X167590715Y-52253390D02*
X167638334Y-52205771D01*
X167638334Y-52205771D02*
X167733572Y-52158152D01*
X167733572Y-52158152D02*
X167876429Y-52158152D01*
X167876429Y-52158152D02*
X167971667Y-52205771D01*
X167971667Y-52205771D02*
X168019286Y-52253390D01*
X168019286Y-52253390D02*
X168066905Y-52348628D01*
X168066905Y-52348628D02*
X168066905Y-52634342D01*
X168066905Y-52634342D02*
X168019286Y-52729580D01*
X168019286Y-52729580D02*
X167971667Y-52777200D01*
X167971667Y-52777200D02*
X167876429Y-52824819D01*
X167876429Y-52824819D02*
X167733572Y-52824819D01*
X161781191Y-53824819D02*
X162447857Y-54824819D01*
X162447857Y-53824819D02*
X161781191Y-54824819D01*
X162828810Y-54824819D02*
X162828810Y-53824819D01*
X163257381Y-54539104D02*
X163733571Y-54539104D01*
X163162143Y-54824819D02*
X163495476Y-53824819D01*
X163495476Y-53824819D02*
X163828809Y-54824819D01*
X164352619Y-53824819D02*
X164543095Y-53824819D01*
X164543095Y-53824819D02*
X164638333Y-53872438D01*
X164638333Y-53872438D02*
X164733571Y-53967676D01*
X164733571Y-53967676D02*
X164781190Y-54158152D01*
X164781190Y-54158152D02*
X164781190Y-54491485D01*
X164781190Y-54491485D02*
X164733571Y-54681961D01*
X164733571Y-54681961D02*
X164638333Y-54777200D01*
X164638333Y-54777200D02*
X164543095Y-54824819D01*
X164543095Y-54824819D02*
X164352619Y-54824819D01*
X164352619Y-54824819D02*
X164257381Y-54777200D01*
X164257381Y-54777200D02*
X164162143Y-54681961D01*
X164162143Y-54681961D02*
X164114524Y-54491485D01*
X164114524Y-54491485D02*
X164114524Y-54158152D01*
X164114524Y-54158152D02*
X164162143Y-53967676D01*
X164162143Y-53967676D02*
X164257381Y-53872438D01*
X164257381Y-53872438D02*
X164352619Y-53824819D01*
X161816667Y-67283200D02*
X161959524Y-67330819D01*
X161959524Y-67330819D02*
X162197619Y-67330819D01*
X162197619Y-67330819D02*
X162292857Y-67283200D01*
X162292857Y-67283200D02*
X162340476Y-67235580D01*
X162340476Y-67235580D02*
X162388095Y-67140342D01*
X162388095Y-67140342D02*
X162388095Y-67045104D01*
X162388095Y-67045104D02*
X162340476Y-66949866D01*
X162340476Y-66949866D02*
X162292857Y-66902247D01*
X162292857Y-66902247D02*
X162197619Y-66854628D01*
X162197619Y-66854628D02*
X162007143Y-66807009D01*
X162007143Y-66807009D02*
X161911905Y-66759390D01*
X161911905Y-66759390D02*
X161864286Y-66711771D01*
X161864286Y-66711771D02*
X161816667Y-66616533D01*
X161816667Y-66616533D02*
X161816667Y-66521295D01*
X161816667Y-66521295D02*
X161864286Y-66426057D01*
X161864286Y-66426057D02*
X161911905Y-66378438D01*
X161911905Y-66378438D02*
X162007143Y-66330819D01*
X162007143Y-66330819D02*
X162245238Y-66330819D01*
X162245238Y-66330819D02*
X162388095Y-66378438D01*
X162721429Y-66330819D02*
X162959524Y-67330819D01*
X162959524Y-67330819D02*
X163150000Y-66616533D01*
X163150000Y-66616533D02*
X163340476Y-67330819D01*
X163340476Y-67330819D02*
X163578572Y-66330819D01*
X163864286Y-66330819D02*
X164483333Y-66330819D01*
X164483333Y-66330819D02*
X164150000Y-66711771D01*
X164150000Y-66711771D02*
X164292857Y-66711771D01*
X164292857Y-66711771D02*
X164388095Y-66759390D01*
X164388095Y-66759390D02*
X164435714Y-66807009D01*
X164435714Y-66807009D02*
X164483333Y-66902247D01*
X164483333Y-66902247D02*
X164483333Y-67140342D01*
X164483333Y-67140342D02*
X164435714Y-67235580D01*
X164435714Y-67235580D02*
X164388095Y-67283200D01*
X164388095Y-67283200D02*
X164292857Y-67330819D01*
X164292857Y-67330819D02*
X164007143Y-67330819D01*
X164007143Y-67330819D02*
X163911905Y-67283200D01*
X163911905Y-67283200D02*
X163864286Y-67235580D01*
X123456667Y-86343200D02*
X123599524Y-86390819D01*
X123599524Y-86390819D02*
X123837619Y-86390819D01*
X123837619Y-86390819D02*
X123932857Y-86343200D01*
X123932857Y-86343200D02*
X123980476Y-86295580D01*
X123980476Y-86295580D02*
X124028095Y-86200342D01*
X124028095Y-86200342D02*
X124028095Y-86105104D01*
X124028095Y-86105104D02*
X123980476Y-86009866D01*
X123980476Y-86009866D02*
X123932857Y-85962247D01*
X123932857Y-85962247D02*
X123837619Y-85914628D01*
X123837619Y-85914628D02*
X123647143Y-85867009D01*
X123647143Y-85867009D02*
X123551905Y-85819390D01*
X123551905Y-85819390D02*
X123504286Y-85771771D01*
X123504286Y-85771771D02*
X123456667Y-85676533D01*
X123456667Y-85676533D02*
X123456667Y-85581295D01*
X123456667Y-85581295D02*
X123504286Y-85486057D01*
X123504286Y-85486057D02*
X123551905Y-85438438D01*
X123551905Y-85438438D02*
X123647143Y-85390819D01*
X123647143Y-85390819D02*
X123885238Y-85390819D01*
X123885238Y-85390819D02*
X124028095Y-85438438D01*
X124361429Y-85390819D02*
X124599524Y-86390819D01*
X124599524Y-86390819D02*
X124790000Y-85676533D01*
X124790000Y-85676533D02*
X124980476Y-86390819D01*
X124980476Y-86390819D02*
X125218572Y-85390819D01*
X126028095Y-85390819D02*
X125837619Y-85390819D01*
X125837619Y-85390819D02*
X125742381Y-85438438D01*
X125742381Y-85438438D02*
X125694762Y-85486057D01*
X125694762Y-85486057D02*
X125599524Y-85628914D01*
X125599524Y-85628914D02*
X125551905Y-85819390D01*
X125551905Y-85819390D02*
X125551905Y-86200342D01*
X125551905Y-86200342D02*
X125599524Y-86295580D01*
X125599524Y-86295580D02*
X125647143Y-86343200D01*
X125647143Y-86343200D02*
X125742381Y-86390819D01*
X125742381Y-86390819D02*
X125932857Y-86390819D01*
X125932857Y-86390819D02*
X126028095Y-86343200D01*
X126028095Y-86343200D02*
X126075714Y-86295580D01*
X126075714Y-86295580D02*
X126123333Y-86200342D01*
X126123333Y-86200342D02*
X126123333Y-85962247D01*
X126123333Y-85962247D02*
X126075714Y-85867009D01*
X126075714Y-85867009D02*
X126028095Y-85819390D01*
X126028095Y-85819390D02*
X125932857Y-85771771D01*
X125932857Y-85771771D02*
X125742381Y-85771771D01*
X125742381Y-85771771D02*
X125647143Y-85819390D01*
X125647143Y-85819390D02*
X125599524Y-85867009D01*
X125599524Y-85867009D02*
X125551905Y-85962247D01*
X200166667Y-67283200D02*
X200309524Y-67330819D01*
X200309524Y-67330819D02*
X200547619Y-67330819D01*
X200547619Y-67330819D02*
X200642857Y-67283200D01*
X200642857Y-67283200D02*
X200690476Y-67235580D01*
X200690476Y-67235580D02*
X200738095Y-67140342D01*
X200738095Y-67140342D02*
X200738095Y-67045104D01*
X200738095Y-67045104D02*
X200690476Y-66949866D01*
X200690476Y-66949866D02*
X200642857Y-66902247D01*
X200642857Y-66902247D02*
X200547619Y-66854628D01*
X200547619Y-66854628D02*
X200357143Y-66807009D01*
X200357143Y-66807009D02*
X200261905Y-66759390D01*
X200261905Y-66759390D02*
X200214286Y-66711771D01*
X200214286Y-66711771D02*
X200166667Y-66616533D01*
X200166667Y-66616533D02*
X200166667Y-66521295D01*
X200166667Y-66521295D02*
X200214286Y-66426057D01*
X200214286Y-66426057D02*
X200261905Y-66378438D01*
X200261905Y-66378438D02*
X200357143Y-66330819D01*
X200357143Y-66330819D02*
X200595238Y-66330819D01*
X200595238Y-66330819D02*
X200738095Y-66378438D01*
X201071429Y-66330819D02*
X201309524Y-67330819D01*
X201309524Y-67330819D02*
X201500000Y-66616533D01*
X201500000Y-66616533D02*
X201690476Y-67330819D01*
X201690476Y-67330819D02*
X201928572Y-66330819D01*
X202785714Y-66330819D02*
X202309524Y-66330819D01*
X202309524Y-66330819D02*
X202261905Y-66807009D01*
X202261905Y-66807009D02*
X202309524Y-66759390D01*
X202309524Y-66759390D02*
X202404762Y-66711771D01*
X202404762Y-66711771D02*
X202642857Y-66711771D01*
X202642857Y-66711771D02*
X202738095Y-66759390D01*
X202738095Y-66759390D02*
X202785714Y-66807009D01*
X202785714Y-66807009D02*
X202833333Y-66902247D01*
X202833333Y-66902247D02*
X202833333Y-67140342D01*
X202833333Y-67140342D02*
X202785714Y-67235580D01*
X202785714Y-67235580D02*
X202738095Y-67283200D01*
X202738095Y-67283200D02*
X202642857Y-67330819D01*
X202642857Y-67330819D02*
X202404762Y-67330819D01*
X202404762Y-67330819D02*
X202309524Y-67283200D01*
X202309524Y-67283200D02*
X202261905Y-67235580D01*
X180986667Y-67283200D02*
X181129524Y-67330819D01*
X181129524Y-67330819D02*
X181367619Y-67330819D01*
X181367619Y-67330819D02*
X181462857Y-67283200D01*
X181462857Y-67283200D02*
X181510476Y-67235580D01*
X181510476Y-67235580D02*
X181558095Y-67140342D01*
X181558095Y-67140342D02*
X181558095Y-67045104D01*
X181558095Y-67045104D02*
X181510476Y-66949866D01*
X181510476Y-66949866D02*
X181462857Y-66902247D01*
X181462857Y-66902247D02*
X181367619Y-66854628D01*
X181367619Y-66854628D02*
X181177143Y-66807009D01*
X181177143Y-66807009D02*
X181081905Y-66759390D01*
X181081905Y-66759390D02*
X181034286Y-66711771D01*
X181034286Y-66711771D02*
X180986667Y-66616533D01*
X180986667Y-66616533D02*
X180986667Y-66521295D01*
X180986667Y-66521295D02*
X181034286Y-66426057D01*
X181034286Y-66426057D02*
X181081905Y-66378438D01*
X181081905Y-66378438D02*
X181177143Y-66330819D01*
X181177143Y-66330819D02*
X181415238Y-66330819D01*
X181415238Y-66330819D02*
X181558095Y-66378438D01*
X181891429Y-66330819D02*
X182129524Y-67330819D01*
X182129524Y-67330819D02*
X182320000Y-66616533D01*
X182320000Y-66616533D02*
X182510476Y-67330819D01*
X182510476Y-67330819D02*
X182748572Y-66330819D01*
X183558095Y-66664152D02*
X183558095Y-67330819D01*
X183320000Y-66283200D02*
X183081905Y-66997485D01*
X183081905Y-66997485D02*
X183700952Y-66997485D01*
X180906667Y-86313200D02*
X181049524Y-86360819D01*
X181049524Y-86360819D02*
X181287619Y-86360819D01*
X181287619Y-86360819D02*
X181382857Y-86313200D01*
X181382857Y-86313200D02*
X181430476Y-86265580D01*
X181430476Y-86265580D02*
X181478095Y-86170342D01*
X181478095Y-86170342D02*
X181478095Y-86075104D01*
X181478095Y-86075104D02*
X181430476Y-85979866D01*
X181430476Y-85979866D02*
X181382857Y-85932247D01*
X181382857Y-85932247D02*
X181287619Y-85884628D01*
X181287619Y-85884628D02*
X181097143Y-85837009D01*
X181097143Y-85837009D02*
X181001905Y-85789390D01*
X181001905Y-85789390D02*
X180954286Y-85741771D01*
X180954286Y-85741771D02*
X180906667Y-85646533D01*
X180906667Y-85646533D02*
X180906667Y-85551295D01*
X180906667Y-85551295D02*
X180954286Y-85456057D01*
X180954286Y-85456057D02*
X181001905Y-85408438D01*
X181001905Y-85408438D02*
X181097143Y-85360819D01*
X181097143Y-85360819D02*
X181335238Y-85360819D01*
X181335238Y-85360819D02*
X181478095Y-85408438D01*
X181811429Y-85360819D02*
X182049524Y-86360819D01*
X182049524Y-86360819D02*
X182240000Y-85646533D01*
X182240000Y-85646533D02*
X182430476Y-86360819D01*
X182430476Y-86360819D02*
X182668572Y-85360819D01*
X183097143Y-86360819D02*
X183287619Y-86360819D01*
X183287619Y-86360819D02*
X183382857Y-86313200D01*
X183382857Y-86313200D02*
X183430476Y-86265580D01*
X183430476Y-86265580D02*
X183525714Y-86122723D01*
X183525714Y-86122723D02*
X183573333Y-85932247D01*
X183573333Y-85932247D02*
X183573333Y-85551295D01*
X183573333Y-85551295D02*
X183525714Y-85456057D01*
X183525714Y-85456057D02*
X183478095Y-85408438D01*
X183478095Y-85408438D02*
X183382857Y-85360819D01*
X183382857Y-85360819D02*
X183192381Y-85360819D01*
X183192381Y-85360819D02*
X183097143Y-85408438D01*
X183097143Y-85408438D02*
X183049524Y-85456057D01*
X183049524Y-85456057D02*
X183001905Y-85551295D01*
X183001905Y-85551295D02*
X183001905Y-85789390D01*
X183001905Y-85789390D02*
X183049524Y-85884628D01*
X183049524Y-85884628D02*
X183097143Y-85932247D01*
X183097143Y-85932247D02*
X183192381Y-85979866D01*
X183192381Y-85979866D02*
X183382857Y-85979866D01*
X183382857Y-85979866D02*
X183478095Y-85932247D01*
X183478095Y-85932247D02*
X183525714Y-85884628D01*
X183525714Y-85884628D02*
X183573333Y-85789390D01*
X161806667Y-86343200D02*
X161949524Y-86390819D01*
X161949524Y-86390819D02*
X162187619Y-86390819D01*
X162187619Y-86390819D02*
X162282857Y-86343200D01*
X162282857Y-86343200D02*
X162330476Y-86295580D01*
X162330476Y-86295580D02*
X162378095Y-86200342D01*
X162378095Y-86200342D02*
X162378095Y-86105104D01*
X162378095Y-86105104D02*
X162330476Y-86009866D01*
X162330476Y-86009866D02*
X162282857Y-85962247D01*
X162282857Y-85962247D02*
X162187619Y-85914628D01*
X162187619Y-85914628D02*
X161997143Y-85867009D01*
X161997143Y-85867009D02*
X161901905Y-85819390D01*
X161901905Y-85819390D02*
X161854286Y-85771771D01*
X161854286Y-85771771D02*
X161806667Y-85676533D01*
X161806667Y-85676533D02*
X161806667Y-85581295D01*
X161806667Y-85581295D02*
X161854286Y-85486057D01*
X161854286Y-85486057D02*
X161901905Y-85438438D01*
X161901905Y-85438438D02*
X161997143Y-85390819D01*
X161997143Y-85390819D02*
X162235238Y-85390819D01*
X162235238Y-85390819D02*
X162378095Y-85438438D01*
X162711429Y-85390819D02*
X162949524Y-86390819D01*
X162949524Y-86390819D02*
X163140000Y-85676533D01*
X163140000Y-85676533D02*
X163330476Y-86390819D01*
X163330476Y-86390819D02*
X163568572Y-85390819D01*
X164092381Y-85819390D02*
X163997143Y-85771771D01*
X163997143Y-85771771D02*
X163949524Y-85724152D01*
X163949524Y-85724152D02*
X163901905Y-85628914D01*
X163901905Y-85628914D02*
X163901905Y-85581295D01*
X163901905Y-85581295D02*
X163949524Y-85486057D01*
X163949524Y-85486057D02*
X163997143Y-85438438D01*
X163997143Y-85438438D02*
X164092381Y-85390819D01*
X164092381Y-85390819D02*
X164282857Y-85390819D01*
X164282857Y-85390819D02*
X164378095Y-85438438D01*
X164378095Y-85438438D02*
X164425714Y-85486057D01*
X164425714Y-85486057D02*
X164473333Y-85581295D01*
X164473333Y-85581295D02*
X164473333Y-85628914D01*
X164473333Y-85628914D02*
X164425714Y-85724152D01*
X164425714Y-85724152D02*
X164378095Y-85771771D01*
X164378095Y-85771771D02*
X164282857Y-85819390D01*
X164282857Y-85819390D02*
X164092381Y-85819390D01*
X164092381Y-85819390D02*
X163997143Y-85867009D01*
X163997143Y-85867009D02*
X163949524Y-85914628D01*
X163949524Y-85914628D02*
X163901905Y-86009866D01*
X163901905Y-86009866D02*
X163901905Y-86200342D01*
X163901905Y-86200342D02*
X163949524Y-86295580D01*
X163949524Y-86295580D02*
X163997143Y-86343200D01*
X163997143Y-86343200D02*
X164092381Y-86390819D01*
X164092381Y-86390819D02*
X164282857Y-86390819D01*
X164282857Y-86390819D02*
X164378095Y-86343200D01*
X164378095Y-86343200D02*
X164425714Y-86295580D01*
X164425714Y-86295580D02*
X164473333Y-86200342D01*
X164473333Y-86200342D02*
X164473333Y-86009866D01*
X164473333Y-86009866D02*
X164425714Y-85914628D01*
X164425714Y-85914628D02*
X164378095Y-85867009D01*
X164378095Y-85867009D02*
X164282857Y-85819390D01*
X123456667Y-67283200D02*
X123599524Y-67330819D01*
X123599524Y-67330819D02*
X123837619Y-67330819D01*
X123837619Y-67330819D02*
X123932857Y-67283200D01*
X123932857Y-67283200D02*
X123980476Y-67235580D01*
X123980476Y-67235580D02*
X124028095Y-67140342D01*
X124028095Y-67140342D02*
X124028095Y-67045104D01*
X124028095Y-67045104D02*
X123980476Y-66949866D01*
X123980476Y-66949866D02*
X123932857Y-66902247D01*
X123932857Y-66902247D02*
X123837619Y-66854628D01*
X123837619Y-66854628D02*
X123647143Y-66807009D01*
X123647143Y-66807009D02*
X123551905Y-66759390D01*
X123551905Y-66759390D02*
X123504286Y-66711771D01*
X123504286Y-66711771D02*
X123456667Y-66616533D01*
X123456667Y-66616533D02*
X123456667Y-66521295D01*
X123456667Y-66521295D02*
X123504286Y-66426057D01*
X123504286Y-66426057D02*
X123551905Y-66378438D01*
X123551905Y-66378438D02*
X123647143Y-66330819D01*
X123647143Y-66330819D02*
X123885238Y-66330819D01*
X123885238Y-66330819D02*
X124028095Y-66378438D01*
X124361429Y-66330819D02*
X124599524Y-67330819D01*
X124599524Y-67330819D02*
X124790000Y-66616533D01*
X124790000Y-66616533D02*
X124980476Y-67330819D01*
X124980476Y-67330819D02*
X125218572Y-66330819D01*
X126123333Y-67330819D02*
X125551905Y-67330819D01*
X125837619Y-67330819D02*
X125837619Y-66330819D01*
X125837619Y-66330819D02*
X125742381Y-66473676D01*
X125742381Y-66473676D02*
X125647143Y-66568914D01*
X125647143Y-66568914D02*
X125551905Y-66616533D01*
X142616667Y-86313200D02*
X142759524Y-86360819D01*
X142759524Y-86360819D02*
X142997619Y-86360819D01*
X142997619Y-86360819D02*
X143092857Y-86313200D01*
X143092857Y-86313200D02*
X143140476Y-86265580D01*
X143140476Y-86265580D02*
X143188095Y-86170342D01*
X143188095Y-86170342D02*
X143188095Y-86075104D01*
X143188095Y-86075104D02*
X143140476Y-85979866D01*
X143140476Y-85979866D02*
X143092857Y-85932247D01*
X143092857Y-85932247D02*
X142997619Y-85884628D01*
X142997619Y-85884628D02*
X142807143Y-85837009D01*
X142807143Y-85837009D02*
X142711905Y-85789390D01*
X142711905Y-85789390D02*
X142664286Y-85741771D01*
X142664286Y-85741771D02*
X142616667Y-85646533D01*
X142616667Y-85646533D02*
X142616667Y-85551295D01*
X142616667Y-85551295D02*
X142664286Y-85456057D01*
X142664286Y-85456057D02*
X142711905Y-85408438D01*
X142711905Y-85408438D02*
X142807143Y-85360819D01*
X142807143Y-85360819D02*
X143045238Y-85360819D01*
X143045238Y-85360819D02*
X143188095Y-85408438D01*
X143521429Y-85360819D02*
X143759524Y-86360819D01*
X143759524Y-86360819D02*
X143950000Y-85646533D01*
X143950000Y-85646533D02*
X144140476Y-86360819D01*
X144140476Y-86360819D02*
X144378572Y-85360819D01*
X144664286Y-85360819D02*
X145330952Y-85360819D01*
X145330952Y-85360819D02*
X144902381Y-86360819D01*
D12*
%TO.C,SW2*%
X136995000Y-67765000D02*
X150965000Y-67765000D01*
X136995000Y-81735000D02*
X136995000Y-67765000D01*
X150965000Y-67765000D02*
X150965000Y-81735000D01*
X150965000Y-81735000D02*
X136995000Y-81735000D01*
%TO.C,SW10*%
X194485000Y-86795000D02*
X208455000Y-86795000D01*
X194485000Y-100765000D02*
X194485000Y-86795000D01*
X208455000Y-86795000D02*
X208455000Y-100765000D01*
X208455000Y-100765000D02*
X194485000Y-100765000D01*
D13*
%TO.C,U1*%
X154405000Y-45370000D02*
X154405000Y-62370000D01*
X156405000Y-64370000D02*
X170205000Y-64370000D01*
X158805000Y-41945970D02*
X167805000Y-41945970D01*
X158805000Y-49299270D02*
X158805000Y-41945970D01*
X167805000Y-41945970D02*
X167805000Y-49299270D01*
X167805000Y-49299270D02*
X158805000Y-49299270D01*
X170205000Y-43370910D02*
X156405000Y-43370910D01*
X172205000Y-62370000D02*
X172205000Y-45370000D01*
D12*
X154405000Y-45370000D02*
G75*
G02*
X156405000Y-43370000I2044612J-44612D01*
G01*
X156405000Y-64370000D02*
G75*
G02*
X154405000Y-62370000I44857J2044857D01*
G01*
X170205000Y-43370000D02*
G75*
G02*
X172205000Y-45370000I-44610J-2044610D01*
G01*
X172205000Y-62370000D02*
G75*
G02*
X170205000Y-64370000I-2000000J0D01*
G01*
D14*
X152432000Y-45070000D02*
G75*
G02*
X152178000Y-45070000I-127000J0D01*
G01*
X152178000Y-45070000D02*
G75*
G02*
X152432000Y-45070000I127000J0D01*
G01*
D15*
X154417285Y-45308295D02*
X154420333Y-45259527D01*
X154424397Y-45210506D01*
X154417285Y-45308295D01*
X172192713Y-62440850D02*
X172189665Y-62489618D01*
X172185601Y-62538639D01*
X172180268Y-62587407D01*
X172173664Y-62636175D01*
X172166044Y-62684690D01*
X172157153Y-62732950D01*
X172147248Y-62780955D01*
X172194492Y-62391574D01*
X172192713Y-62440850D01*
D12*
%TO.C,SW3*%
X156165000Y-67765000D02*
X170135000Y-67765000D01*
X156165000Y-81735000D02*
X156165000Y-67765000D01*
X170135000Y-67765000D02*
X170135000Y-81735000D01*
X170135000Y-81735000D02*
X156165000Y-81735000D01*
%TO.C,SW6*%
X117805000Y-86825000D02*
X131775000Y-86825000D01*
X117805000Y-100795000D02*
X117805000Y-86825000D01*
X131775000Y-86825000D02*
X131775000Y-100795000D01*
X131775000Y-100795000D02*
X117805000Y-100795000D01*
%TO.C,SW5*%
X194515000Y-67765000D02*
X208485000Y-67765000D01*
X194515000Y-81735000D02*
X194515000Y-67765000D01*
X208485000Y-67765000D02*
X208485000Y-81735000D01*
X208485000Y-81735000D02*
X194515000Y-81735000D01*
%TO.C,SW4*%
X175335000Y-67765000D02*
X189305000Y-67765000D01*
X175335000Y-81735000D02*
X175335000Y-67765000D01*
X189305000Y-67765000D02*
X189305000Y-81735000D01*
X189305000Y-81735000D02*
X175335000Y-81735000D01*
%TO.C,SW9*%
X175255000Y-86795000D02*
X189225000Y-86795000D01*
X175255000Y-100765000D02*
X175255000Y-86795000D01*
X189225000Y-86795000D02*
X189225000Y-100765000D01*
X189225000Y-100765000D02*
X175255000Y-100765000D01*
%TO.C,SW8*%
X156155000Y-86825000D02*
X170125000Y-86825000D01*
X156155000Y-100795000D02*
X156155000Y-86825000D01*
X170125000Y-86825000D02*
X170125000Y-100795000D01*
X170125000Y-100795000D02*
X156155000Y-100795000D01*
%TO.C,SW1*%
X117805000Y-67765000D02*
X131775000Y-67765000D01*
X117805000Y-81735000D02*
X117805000Y-67765000D01*
X131775000Y-67765000D02*
X131775000Y-81735000D01*
X131775000Y-81735000D02*
X117805000Y-81735000D01*
%TO.C,SW7*%
X136965000Y-86795000D02*
X150935000Y-86795000D01*
X136965000Y-100765000D02*
X136965000Y-86795000D01*
X150935000Y-86795000D02*
X150935000Y-100765000D01*
X150935000Y-100765000D02*
X136965000Y-100765000D01*
%TD*%
M02*
