%TF.GenerationSoftware,KiCad,Pcbnew,9.0.7*%
%TF.CreationDate,2026-09-09T00:36:29+08:00*%
%TF.ProjectId,hackpad,6861636b-7061-4642-9e6b-696361645f70,rev?*%
%TF.SameCoordinates,Original*%
%TF.FileFunction,Copper,L1,Top*%
%TF.FilePolarity,Positive*%
%FSLAX46Y46*%
G04 Gerber Fmt 4.6, Leading zero omitted, Abs format (unit mm)*
G04 Created by KiCad (PCBNEW 9.0.7) date 2026-09-09 00:36:29*
%MOMM*%
%LPD*%
G01*
G04 APERTURE LIST*
%TA.AperFunction,ComponentPad*%
%ADD10C,2.200000*%
%TD*%
%TA.AperFunction,ComponentPad*%
%ADD11R,3.500000X1.700000*%
%TD*%
%TA.AperFunction,ComponentPad*%
%ADD12O,3.600000X1.700000*%
%TD*%
%TA.AperFunction,ComponentPad*%
%ADD13O,3.700000X1.700000*%
%TD*%
%TA.AperFunction,Conductor*%
%ADD14C,0.200000*%
%TD*%
G04 APERTURE END LIST*
D10*
%TO.P,SW2,1,1*%
%TO.N,Net-(U1-PA5_A9_D9_MISO)*%
X146520000Y-69670000D03*
%TO.P,SW2,2,2*%
%TO.N,GND*%
X140170000Y-72210000D03*
%TD*%
%TO.P,SW10,1,1*%
%TO.N,Net-(U1-PA4_A1_D1)*%
X204010000Y-88700000D03*
%TO.P,SW10,2,2*%
%TO.N,GND*%
X197660000Y-91240000D03*
%TD*%
D11*
%TO.P,U1,1,PA02_A0_D0*%
%TO.N,unconnected-(U1-PA02_A0_D0-Pad1)*%
X154680000Y-46250000D03*
D12*
%TO.P,U1,2,PA4_A1_D1*%
%TO.N,Net-(U1-PA4_A1_D1)*%
X154680000Y-48790000D03*
%TO.P,U1,3,PA10_A2_D2*%
%TO.N,Net-(U1-PA10_A2_D2)*%
X154680000Y-51330000D03*
%TO.P,U1,4,PA11_A3_D3*%
%TO.N,Net-(U1-PA11_A3_D3)*%
X154680000Y-53870000D03*
%TO.P,U1,5,PA8_A4_D4_SDA*%
%TO.N,Net-(U1-PA8_A4_D4_SDA)*%
X154680000Y-56410000D03*
%TO.P,U1,6,PA9_A5_D5_SCL*%
%TO.N,Net-(U1-PA9_A5_D5_SCL)*%
X154680000Y-58950000D03*
%TO.P,U1,7,PB08_A6_D6_TX*%
%TO.N,Net-(U1-PB08_A6_D6_TX)*%
X154680000Y-61490000D03*
%TO.P,U1,8,PB09_A7_D7_RX*%
%TO.N,Net-(U1-PB09_A7_D7_RX)*%
X171930000Y-61490000D03*
%TO.P,U1,9,PA7_A8_D8_SCK*%
%TO.N,Net-(U1-PA7_A8_D8_SCK)*%
X171930000Y-58950000D03*
%TO.P,U1,10,PA5_A9_D9_MISO*%
%TO.N,Net-(U1-PA5_A9_D9_MISO)*%
X171930000Y-56410000D03*
D13*
%TO.P,U1,11,PA6_A10_D10_MOSI*%
%TO.N,Net-(U1-PA6_A10_D10_MOSI)*%
X171930000Y-53870000D03*
%TO.P,U1,12,3V3*%
%TO.N,unconnected-(U1-3V3-Pad12)*%
X171930000Y-51330000D03*
%TO.P,U1,13,GND*%
%TO.N,GND*%
X171930000Y-48790000D03*
%TO.P,U1,14,5V*%
%TO.N,unconnected-(U1-5V-Pad14)*%
X171930000Y-46250000D03*
%TD*%
D10*
%TO.P,SW3,1,1*%
%TO.N,Net-(U1-PA7_A8_D8_SCK)*%
X165690000Y-69670000D03*
%TO.P,SW3,2,2*%
%TO.N,GND*%
X159340000Y-72210000D03*
%TD*%
%TO.P,SW6,1,1*%
%TO.N,Net-(U1-PA9_A5_D5_SCL)*%
X127330000Y-88730000D03*
%TO.P,SW6,2,2*%
%TO.N,GND*%
X120980000Y-91270000D03*
%TD*%
%TO.P,SW5,1,1*%
%TO.N,Net-(U1-PB08_A6_D6_TX)*%
X204040000Y-69670000D03*
%TO.P,SW5,2,2*%
%TO.N,GND*%
X197690000Y-72210000D03*
%TD*%
%TO.P,SW4,1,1*%
%TO.N,Net-(U1-PB09_A7_D7_RX)*%
X184860000Y-69670000D03*
%TO.P,SW4,2,2*%
%TO.N,GND*%
X178510000Y-72210000D03*
%TD*%
%TO.P,SW9,1,1*%
%TO.N,Net-(U1-PA10_A2_D2)*%
X184780000Y-88700000D03*
%TO.P,SW9,2,2*%
%TO.N,GND*%
X178430000Y-91240000D03*
%TD*%
%TO.P,SW8,1,1*%
%TO.N,Net-(U1-PA11_A3_D3)*%
X165680000Y-88730000D03*
%TO.P,SW8,2,2*%
%TO.N,GND*%
X159330000Y-91270000D03*
%TD*%
%TO.P,SW1,1,1*%
%TO.N,Net-(U1-PA6_A10_D10_MOSI)*%
X127330000Y-69670000D03*
%TO.P,SW1,2,2*%
%TO.N,GND*%
X120980000Y-72210000D03*
%TD*%
%TO.P,SW7,1,1*%
%TO.N,Net-(U1-PA8_A4_D4_SDA)*%
X146490000Y-88700000D03*
%TO.P,SW7,2,2*%
%TO.N,GND*%
X140140000Y-91240000D03*
%TD*%
D14*
%TO.N,Net-(U1-PA6_A10_D10_MOSI)*%
X167851000Y-54299000D02*
X169240000Y-52910000D01*
X142701000Y-54299000D02*
X167851000Y-54299000D01*
X127330000Y-69670000D02*
X142701000Y-54299000D01*
%TO.N,Net-(U1-PA5_A9_D9_MISO)*%
X146520000Y-69670000D02*
X155020000Y-69670000D01*
X155020000Y-69670000D02*
X169240000Y-55450000D01*
%TO.N,Net-(U1-PA7_A8_D8_SCK)*%
X165690000Y-61540000D02*
X169240000Y-57990000D01*
X165690000Y-69670000D02*
X165690000Y-61540000D01*
%TO.N,Net-(U1-PB09_A7_D7_RX)*%
X175720000Y-60530000D02*
X169240000Y-60530000D01*
X184860000Y-69670000D02*
X175720000Y-60530000D01*
%TO.N,Net-(U1-PA9_A5_D5_SCL)*%
X132940000Y-72400000D02*
X147350000Y-57990000D01*
X127330000Y-88730000D02*
X132940000Y-83120000D01*
X132940000Y-83120000D02*
X132940000Y-72400000D01*
X147350000Y-57990000D02*
X153990000Y-57990000D01*
%TO.N,Net-(U1-PA8_A4_D4_SDA)*%
X123680000Y-81070000D02*
X127890000Y-76860000D01*
X127890000Y-72230000D02*
X144670000Y-55450000D01*
X146490000Y-88700000D02*
X130940000Y-88700000D01*
X130940000Y-88700000D02*
X128060000Y-91580000D01*
X128060000Y-91580000D02*
X126880000Y-91580000D01*
X144670000Y-55450000D02*
X153990000Y-55450000D01*
X127890000Y-76860000D02*
X127890000Y-72230000D01*
X126880000Y-91580000D02*
X123680000Y-88380000D01*
X123680000Y-88380000D02*
X123680000Y-81070000D01*
%TO.N,Net-(U1-PA11_A3_D3)*%
X136860000Y-52910000D02*
X153990000Y-52910000D01*
X159340000Y-88730000D02*
X150690000Y-97380000D01*
X150690000Y-97380000D02*
X120740000Y-97380000D01*
X117290000Y-93930000D02*
X117290000Y-72480000D01*
X165680000Y-88730000D02*
X159340000Y-88730000D01*
X120740000Y-97380000D02*
X117290000Y-93930000D01*
X117290000Y-72480000D02*
X136860000Y-52910000D01*
%TO.N,Net-(U1-PA10_A2_D2)*%
X204650000Y-78540000D02*
X204650000Y-72100000D01*
X206290000Y-68070000D02*
X189979000Y-51759000D01*
X189979000Y-51759000D02*
X155379000Y-51759000D01*
X155379000Y-51759000D02*
X153990000Y-50370000D01*
X206290000Y-70460000D02*
X206290000Y-68070000D01*
X184780000Y-88700000D02*
X194490000Y-88700000D01*
X194490000Y-88700000D02*
X204650000Y-78540000D01*
X204650000Y-72100000D02*
X206290000Y-70460000D01*
%TO.N,Net-(U1-PA4_A1_D1)*%
X204010000Y-85870000D02*
X208940000Y-80940000D01*
X208940000Y-65920000D02*
X192001000Y-48981000D01*
X208940000Y-80940000D02*
X208940000Y-65920000D01*
X192001000Y-48981000D02*
X155141000Y-48981000D01*
X204010000Y-88700000D02*
X204010000Y-85870000D01*
X155141000Y-48981000D02*
X153990000Y-47830000D01*
%TO.N,Net-(U1-PB08_A6_D6_TX)*%
X162187100Y-60530000D02*
X153990000Y-60530000D01*
X204040000Y-69670000D02*
X188669000Y-54299000D01*
X188669000Y-54299000D02*
X168418100Y-54299000D01*
X168418100Y-54299000D02*
X162187100Y-60530000D01*
%TD*%
M02*
